<svg xmlns="http://www.w3.org/2000/svg" viewBox="0 0 838.49 830.34"><title>Asset 1</title><g id="Layer_2" data-name="Layer 2"><g id="Layer_1-2" data-name="Layer 1"><path d="M782.64,415.15c0,162.93-111.56,306.79-269.86,348A375.5,375.5,0,0,1,388.55,774c-156.4-12-290-127.41-324.19-279.84C22,305,137.64,116.09,325.7,67.19c131.2-34.12,267.89,5,360.32,103.73,48.54,51.86,79.31,113,91.06,183.16,3.37,20.13,4.6,40.62,6.81,60.94Zm-520,8.61c-55.66-.76-102.42,44.77-103.82,100C157.45,577,199.13,627.75,261,629c56.5,1.15,104.28-44.62,105.15-99.83C367,470.8,321.63,424.56,262.63,423.76Zm313-17.18c55.94.7,103-45,103.67-100.54a103.13,103.13,0,0,0-102-104.81c-56.46-.88-104.52,45-105.13,100.45C471.46,359.83,516.86,405.84,575.62,406.58ZM523,678.6c57.48-.1,103.61-45.94,103.44-102.8S579.93,473.22,522.58,473.23c-56.81,0-103.48,46.6-103.43,103.24C419.19,632.67,466,678.69,523,678.6ZM315.3,151.73c-57.42,0-103.56,45.8-103.51,102.74.05,56.71,46.47,102.61,103.8,102.63,56.82,0,103.46-46.46,103.51-103.17C419.15,197.82,372.34,151.73,315.3,151.73ZM417,463.21c25.37,0,46-20.28,46.1-45.27a45.87,45.87,0,0,0-45.62-45.8c-25.54-.09-46.4,20.38-46.41,45.57C371.09,442.69,391.78,463.18,417,463.21Z"/><path d="M658.87,102.78c15.51,4.06,29.63,7.59,43.65,11.47,18.69,5.17,38,8.92,55.83,16.29,44.28,18.32,70.23,52.38,78.49,99.48a116.28,116.28,0,0,1-2.62,50.47c-7.51,28-14.94,56.08-22.91,84.27C795.37,257.65,744.56,170.88,658.87,102.78Z"/><path d="M475.22,805c106.35-17.49,192-68.14,258.61-152.25a8.22,8.22,0,0,1,.15,2.08c-7.63,28.34-14.1,57.06-23.2,84.92-16,48.89-50.4,78.06-100.68,88.43-24.1,5-47.5.84-70.78-5.85-20.23-5.81-40.71-10.79-61.07-16.15C477.55,806,476.88,805.63,475.22,805Z"/><path d="M360.06,24.32Q207.53,48.76,106.92,166.08c1.06-4.09,2.08-8.19,3.2-12.26,6.34-23,11.11-46.62,19.37-68.93,17-45.89,50.9-73,98.78-82.74,23.43-4.74,46.23-1,68.89,5.32C316.79,13,336.58,18,356.29,23.18,357.56,23.52,358.8,23.94,360.06,24.32Z"/><path d="M169.29,724.92q-26.13-6.87-52.26-13.75c-17-4.47-34.27-8.16-49.77-17C29.4,672.52,7.13,640.28,1,597c-3-21.42,1.06-42,7-62.41,5.1-17.68,9.53-35.56,14.27-53.35a22.64,22.64,0,0,1,1.22-2.64C41.53,579.35,90.68,660.76,169.29,724.92Z"/></g></g></svg>