<svg xmlns="http://www.w3.org/2000/svg" viewBox="0 0 80.17 111.77"><defs><style>.cls-1,.cls-2,.cls-3{fill:none;stroke:#000;}.cls-1,.cls-2{stroke-miterlimit:10;}.cls-1,.cls-3{stroke-width:2px;}.cls-3{stroke-linecap:round;stroke-linejoin:round;}</style></defs><title>Asset 3</title><g id="Layer_2" data-name="Layer 2"><g id="Layer_1-2" data-name="Layer 1"><polyline class="cls-1" points="44.33 43.24 62.24 23.8 52.17 14.52 29.99 38.59 37.4 45.43"/><polyline class="cls-1" points="37.29 45.65 31.92 40.61 24.46 48.54 30.51 54.22 33.99 50.52"/><path class="cls-1" d="M34.63,49.14l5.84-6.34a1.93,1.93,0,0,1,2.85,0l5.75,6.35a2.09,2.09,0,0,1-1.6,3.49L36,52.41A2,2,0,0,1,34.63,49.14Z"/><circle class="cls-1" cx="41.86" cy="44.76" r="1.82"/><circle class="cls-2" cx="37.23" cy="50.19" r="0.58"/><circle class="cls-2" cx="46.53" cy="50.19" r="0.58"/><line class="cls-1" x1="41.86" y1="52.65" x2="41.86" y2="94.73"/><line class="cls-1" x1="47.97" y1="52.65" x2="60.04" y2="85.42"/><line class="cls-1" x1="36.02" y1="52.41" x2="24.9" y2="84.57"/><rect class="cls-1" x="22.39" y="50.61" width="6.03" height="5.93" transform="translate(42.83 -3.1) rotate(42.46)"/><polygon class="cls-1" points="22.15 55 18.47 58.05 21.52 60.93 24.2 56.84 22.15 55"/><path class="cls-1" d="M52.91,15.2s9.88-2.25,8.67,8"/><line class="cls-1" x1="50.57" y1="14.08" x2="62.74" y2="25.65"/><line class="cls-1" x1="29.29" y1="36.9" x2="38.48" y2="45.64"/><line class="cls-3" x1="77.44" y1="19.09" x2="77.44" y2="22.54"/><line class="cls-3" x1="75.72" y1="20.81" x2="79.17" y2="20.81"/><line class="cls-3" x1="63.41" y1="47.88" x2="63.41" y2="51.33"/><line class="cls-3" x1="61.68" y1="49.61" x2="65.13" y2="49.61"/><line class="cls-3" x1="40.04" y1="4.76" x2="40.04" y2="8.21"/><line class="cls-3" x1="38.32" y1="6.48" x2="41.77" y2="6.48"/><line class="cls-3" x1="75.72" y1="20.81" x2="79.17" y2="20.81"/><line class="cls-3" x1="63.41" y1="47.88" x2="63.41" y2="51.33"/><line class="cls-3" x1="40.04" y1="4.76" x2="40.04" y2="8.21"/><line class="cls-3" x1="23.03" y1="32.34" x2="23.03" y2="35.79"/><line class="cls-3" x1="21.3" y1="34.06" x2="24.75" y2="34.06"/><line class="cls-3" x1="23.03" y1="32.34" x2="23.03" y2="35.79"/><circle class="cls-3" cx="24.2" cy="14.08" r="5.53"/><circle class="cls-3" cx="70.23" cy="37.47" r="3.84"/><polyline class="cls-3" points="28.66 73.69 41.77 75.67 55.3 72.54"/><path d="M14,105.55a.88.88,0,0,0-.62-.21c-.77,0-1.16,1.22-1.15,3.64,0,1,0,2,.11,2.79H10.92q-.09-1.48-.09-2.82a9.22,9.22,0,0,1,.62-3.78,2.36,2.36,0,0,1,1.72-1.41,4.6,4.6,0,0,1,.76-1.82,2.49,2.49,0,0,1,2.05-1,2.59,2.59,0,0,1,2.14,1,3.29,3.29,0,0,1,.72,2.17,2.65,2.65,0,0,1-.56,1.78,2.27,2.27,0,0,1-1.85.71,2.9,2.9,0,0,1-2-.74Zm2.3-.32a1.13,1.13,0,0,0,1.08-.54,1.2,1.2,0,0,0,.15-.53,1.92,1.92,0,0,0-.15-.74,1.8,1.8,0,0,0-.69-.88,1.35,1.35,0,0,0-.7-.18c-.85,0-1.35.56-1.5,1.69A2.21,2.21,0,0,0,16.32,105.23Z"/><path d="M25.73,105h.6c.11,0,.16.22.16.67v.08c0,.45,0,.68-.16.68h-.65c-.38,2.43-2.17,3.66-5.39,3.69v-1.34c2.26,0,3.61-.79,4.07-2.35h-.55c-2.29,0-3.44-.9-3.44-2.68a3.24,3.24,0,0,1,.68-2.07A2.3,2.3,0,0,1,23,100.8c1.52,0,2.42,1.07,2.71,3.23A7.82,7.82,0,0,1,25.73,105Zm-1.35,0c-.12-1.82-.62-2.74-1.51-2.74a1,1,0,0,0-.89.43,1.61,1.61,0,0,0-.3,1c0,.88.69,1.32,2.06,1.35Z"/><path d="M32,100.7a13.59,13.59,0,0,0,3.77,1.24l0,1.36a3.73,3.73,0,0,0-1.7.64c.23.67,1.06,1,2.49,1h.1c.11,0,.17.19.17.59v.19c0,.45-.06.68-.17.68h-.15c-1.95,0-3.14-.65-3.56-2l-.49.27a13.18,13.18,0,0,1-6.1,1.68h-.14c-.41,0-.61-.23-.61-.68v-.15a.53.53,0,0,1,.61-.6h.23a13.67,13.67,0,0,0,6.38-2l.57-.31c-.13,0-.69-.26-1.67-.66a6.67,6.67,0,0,0-2.31-.54,5.33,5.33,0,0,0-2.05.44v-1.23a3.5,3.5,0,0,1,2.11-.63A6.36,6.36,0,0,1,32,100.7Zm-1.53,8.19,1.08-1.08,1.08,1.09L31.57,110Z"/><path d="M37.21,106.41h-.67c-.41,0-.61-.23-.61-.68v-.15a.53.53,0,0,1,.61-.6h.67c1.41,0,2.12-.67,2.12-2v-2.19h1.3V103Q40.63,106.41,37.21,106.41Zm1.23-8.33L39.52,97l1.09,1.08-1.08,1.08Z"/><path d="M48.46,102.47c0,1.67,1.54,2.51,4.6,2.51,2.47,0,4.08-.3,4.83-.89a1.08,1.08,0,0,0,.48-.77l.07-1.4h1.05l.08,1.42c.06,1.09.54,1.64,1.43,1.64h.06c.11,0,.16.22.16.67v.08c0,.45,0,.68-.16.68H61a2.38,2.38,0,0,1-2.26-1.3q-1.15,1.31-5.49,1.3h0q-6.14,0-6.15-3.79a6,6,0,0,1,.22-1.75h1.41A5.58,5.58,0,0,0,48.46,102.47Zm2.74,6.22,1-1.06,1,1.05-1,1.06Zm1.19,1.93,1-1.06,1.05,1.06-1.05,1Zm1.18-1.93,1.06-1.06,1,1.05-1,1.06Z"/><path d="M68,105.55a2.38,2.38,0,0,1-.22.29,2.29,2.29,0,0,1-1.85.71,3.39,3.39,0,0,1-2.59-1.25,2.44,2.44,0,0,1-2.19,1.11H61c-.4,0-.6-.23-.6-.68v-.15a.53.53,0,0,1,.6-.6h.12a1.47,1.47,0,0,0,1.56-1.3,4.82,4.82,0,0,1,.76-1.82,2.47,2.47,0,0,1,2-1,2.6,2.6,0,0,1,2.15,1,3.2,3.2,0,0,1,.67,1.53c.16,1,.6,1.57,1.3,1.57h.12c.11,0,.16.2.16.6v.15c0,.45,0,.68-.16.68h-.12A1.79,1.79,0,0,1,68,105.55Zm-2.18-.39a1.15,1.15,0,0,0,1.09-.55,1.08,1.08,0,0,0,.14-.53,1.91,1.91,0,0,0-.14-.74,1.76,1.76,0,0,0-.7-.88,1.33,1.33,0,0,0-.7-.18c-.85,0-1.35.57-1.49,1.7A2.23,2.23,0,0,0,65.8,105.16Z"/><path d="M71,106.41H69.58c-.41,0-.61-.23-.61-.68v-.15a.53.53,0,0,1,.61-.6H71c2.1,0,3.15-.61,3.15-1.81a1.84,1.84,0,0,0-.63-1.3c-.25-.26-1-.89-2.33-1.9a1.85,1.85,0,0,1-.87-1.4,1.4,1.4,0,0,1,.29-.87,1.87,1.87,0,0,1,.8-.59L77,94.9v1.52l-5.4,2.11,2.67,2.18a3.1,3.1,0,0,1,1.3,2.5C75.53,105.35,74,106.41,71,106.41Z"/><path d="M1.45,32.31a1.5,1.5,0,0,0,0-3,1.5,1.5,0,0,0,0,3Z"/><path d="M62.62,3a1.5,1.5,0,0,0,0-3,1.5,1.5,0,0,0,0,3Z"/><path d="M75.79,62.47a1.5,1.5,0,0,0,0-3,1.5,1.5,0,0,0,0,3Z"/><path d="M14.62,66.29a1.5,1.5,0,0,0,0-3,1.5,1.5,0,0,0,0,3Z"/></g></g></svg>