<svg xmlns="http://www.w3.org/2000/svg" viewBox="0 0 72.86 90.36"><defs><style>.cls-1{fill:#fff;}</style></defs><title>Asset 6</title><g id="Layer_2" data-name="Layer 2"><g id="Layer_1-2" data-name="Layer 1"><path d="M27,0c1,.17,2,.28,2.9.51A19,19,0,0,1,43.6,11.92a19.12,19.12,0,0,1-1.47,18.32c-.28.45-.58.88-.89,1.3s-.63.78-1,1.25c.26,0,.42,0,.59,0q9.34,0,18.71,0a1.26,1.26,0,0,0,.8-.28,6.59,6.59,0,0,1,4.56-1.89c2.85,0,5.69,0,8.54,0a2,2,0,0,1,.23.05V43.74l-.66,0c-2.56,0-5.12,0-7.68,0a6.77,6.77,0,0,1-5-1.92,1,1,0,0,0-.63-.24c-1.12,0-2.24,0-3.35,0-.36,0-.49.14-.59.45A80.33,80.33,0,0,0,52.31,58.7c-.25,2.86-.34,5.72-.5,8.58,0,.17,0,.34-.05.55H49.89a12.18,12.18,0,0,0-.86-1.2c-.86-.91-1.75-1.78-2.67-2.72-1.18,1.17-2.31,2.31-3.45,3.45a2.31,2.31,0,0,1-3,0L36.5,63.93c-1.17,1.17-2.33,2.31-3.47,3.48a1.66,1.66,0,0,1-1.08.48,2.46,2.46,0,0,1-2.33-1c-.92-1-2-2-3-3l-3.51,3.5a2.34,2.34,0,0,1-2.83,0L16.75,63.9v3.92H14.54c0-.81,0-1.61,0-2.41a83.31,83.31,0,0,0-3.85-23.28.65.65,0,0,0-.71-.55,8.32,8.32,0,0,1-2.18-.32,3.4,3.4,0,0,1-2-2.39V35.58c.72-2.54,2.65-3,5.07-2.71-.27-.34-.42-.55-.58-.74a17.62,17.62,0,0,1-3.54-6.65c-.44-1.63-.64-3.33-1-5v-1.7c.09-.67.17-1.34.27-2A19.52,19.52,0,0,1,20.74.63C21.88.35,23.06.21,24.21,0ZM58.68,35h-49a5.86,5.86,0,0,0-.59,0,1.06,1.06,0,0,0-1.07,1.09c0,.55,0,1.09,0,1.64,0,1.32.31,1.62,1.62,1.62h49a15.61,15.61,0,0,1-.29-2.14A17.05,17.05,0,0,1,58.68,35ZM43,20.14c.41-3.69-1.7-9.58-4.26-11.87L27.26,19.72l5.22,5.22a57,57,0,0,1,5-2.84C39.19,21.3,41.06,20.8,43,20.14Zm-17.48-2.2L37,6.46a17.3,17.3,0,0,0-12-4.22,22.54,22.54,0,0,1-4.76,10.38Zm-7-3.67A22.62,22.62,0,0,1,8.07,19.08a17.43,17.43,0,0,0,4.26,12.05L23.84,19.62Zm7.14,7.2L14.28,32.83c4.17,0,8.48,0,12.78,0a.64.64,0,0,0,.48-.3A20.4,20.4,0,0,1,31,26.79ZM69.31,32.85v4.29H67.12V32.78a22.23,22.23,0,0,0-3,.17,4.06,4.06,0,0,0-3.4,3.23,4.18,4.18,0,0,0,1.43,4.37c1.45,1.26,3.2,1,5,1V39.43h2.19v2.13h2.1V32.85ZM16.69,50.92l3.46-3.46-1.44-1.33,1.59-1.6L21.56,46l3.38-3.39c-.84-1-.84-1-2.2-1H18c-.17,0-.35,0-.53,0l-.11.2,1.46,1.21-1.58,1.59c-.81-.81-1.66-1.57-2.39-2.43a1.79,1.79,0,0,0-1.93-.56,2,2,0,0,0,0,.29c.59,2.23,1.18,4.47,1.78,6.7a1.25,1.25,0,0,0,.23.46C15.52,49.73,16.13,50.35,16.69,50.92Zm24.7,14.66,3.16-3.16L41.2,59.07l-.73,1-1.59-1.57.89-.93-3.26-3.26-3.24,3.24,3.38,3.39.86-1.25,1.63,1.6-1,1.08ZM18.55,11.07a18.5,18.5,0,0,0,4-8.6A17.24,17.24,0,0,0,14,6.55ZM42.78,22.61a20,20,0,0,0-8.55,4l4.54,4.53A17.36,17.36,0,0,0,42.78,22.61ZM16.87,12.78,12.33,8.23a17.22,17.22,0,0,0-4,8.55A20.22,20.22,0,0,0,16.87,12.78Zm6.49,34.78,3.26,3.26,3.2-3.2-3.26-3.25Zm13.11,3.3,3.24-3.24-3.2-3.19-3.23,3.24Zm6.65-3.28,3.2,3.21,3.24-3.25-3.21-3.21ZM26.65,54.17l-3.27,3.26,3.24,3.24,3.27-3.26ZM43.11,57.4l3.29,3.28,3.2-3.21-3.28-3.29ZM21.63,55.73l3.25-3.24-3.13-3.12L18.5,52.61Zm6.77-3.24,3.2,3.19,3.13-3.12-3.19-3.19Zm12.91,3.22,3.22-3.22L41.46,49.4l-3.23,3.22Zm-19.6,9.87,3.17-3.17L21.67,59.2l-3.16,3.18Zm9.81,0,3.19-3.17-3.18-3.17-3.17,3.17Zm-.06-19.8,4.15-4.14H27.3Zm5.36-13-4.35-4.43a16.29,16.29,0,0,0-2.65,4.43Zm10.33,8.83,5,5,1.41-5Zm-9,1,3.24,3.23,3.26-3.25a2,2,0,0,0-2.12-1,9.16,9.16,0,0,1-2.22,0A2.08,2.08,0,0,0,38.15,42.62ZM20,57.49l-4.35-4.35c.27,2.32.55,4.78.86,7.24,0,.14.15.27.22.38Zm30.53-2.55s0,0,0,0c.32-1.74.64-3.48.94-5.22a1.07,1.07,0,0,0-.13-.44l-3.29,3.27ZM49.7,64l.2-3.4-1.82,1.79Z" transform="translate(-0.8)"/><path class="cls-1" d="M49.9,60.64,49.7,64" transform="translate(-0.8)"/><path d="M5.37,90.36Q.78,90.36.8,85.89a8.38,8.38,0,0,1,.47-2.65H2.59a9.38,9.38,0,0,0-.43,2.63Q2.16,89,5.38,89c1.9,0,2.86-1,2.86-3.07l0-10.29H9.59v8.74c0,.73,0,1.43-.07,2.12C9.32,89.06,7.93,90.36,5.37,90.36Z" transform="translate(-0.8)"/><path d="M15.31,86q0,.69-.15.69H15q-2.93,0-2.92-3.43V75.6H13.4v7.64c0,1.33.54,2,1.62,2h.14q.15,0,.15.6Z" transform="translate(-0.8)"/><path d="M20.52,86q0,.69-.15.69h-.08a2,2,0,0,1-1.9-1.11,3.06,3.06,0,0,1-2.7,1.11H15q-.6,0-.6-.69v-.15a.53.53,0,0,1,.6-.6h.62c1.28,0,2-.55,2-1.66l.08-1.4H18.8l.08,1.42c.06,1.09.53,1.64,1.42,1.64h.07c.1,0,.15.22.15.67Zm-4.11,3.16,1.08-1.08,1.09,1.09L17.5,90.24Z" transform="translate(-0.8)"/><path d="M25.73,86q0,.69-.15.69H25.5a2,2,0,0,1-1.9-1.11,3.06,3.06,0,0,1-2.7,1.11h-.66q-.6,0-.6-.69v-.15a.53.53,0,0,1,.6-.6h.62c1.29,0,2-.55,2-1.66l.08-1.4H24l.08,1.42c.06,1.09.54,1.64,1.43,1.64h.06c.1,0,.15.22.15.67Zm-5.68-6.68,1.08-1.07,1.08,1.08L21.13,80.4Zm2.37,0,1.08-1.07,1.08,1.08L23.5,80.4Z" transform="translate(-0.8)"/><path d="M30.84,85.28c-.67.93-2,1.4-3.95,1.4H25.46c-.41,0-.61-.23-.61-.69v-.15a.53.53,0,0,1,.61-.6h1.42c2.1,0,3.15-.6,3.16-1.81a1.86,1.86,0,0,0-.63-1.3c-.25-.26-1-.89-2.34-1.9a1.83,1.83,0,0,1-.87-1.4,1.4,1.4,0,0,1,.29-.87,1.9,1.9,0,0,1,.81-.59l5.57-2.21v1.52l-5.41,2.11L30.13,81a3.27,3.27,0,0,1,1.31,2.5c0,1.18.72,1.77,2,1.77h.12c.11,0,.16.2.16.6V86c0,.46,0,.69-.16.69h-.12A2.64,2.64,0,0,1,30.84,85.28Z" transform="translate(-0.8)"/><path d="M45,85.59a2,2,0,0,1-1.87,1.08,1.86,1.86,0,0,1-1.91-1.1A2.58,2.58,0,0,1,39,86.68a2.55,2.55,0,0,1-2.29-1.11,2.65,2.65,0,0,1-2.53,1.11h-.67c-.4,0-.61-.23-.61-.69v-.15a.54.54,0,0,1,.61-.6h.69A1.67,1.67,0,0,0,36,83.44l.08-1.25h1l.08,1.26c.07,1.19.66,1.79,1.76,1.79.92,0,1.41-.6,1.48-1.79l.08-1.26h1.06l.08,1.26c.07,1.19.53,1.78,1.39,1.78s1.1-.58,1.1-1.75V81.8h1.26v1.67c0,1.18.5,1.77,1.48,1.77h.14c.1,0,.16.2.16.6V86c0,.46-.06.69-.16.69H47A1.9,1.9,0,0,1,45,85.59Z" transform="translate(-0.8)"/><path d="M47.62,86.68H47c-.41,0-.61-.23-.61-.69v-.15a.53.53,0,0,1,.61-.6h.67c1.41,0,2.11-.67,2.11-2v-2.2H51v2.2Q51,86.69,47.62,86.68Zm.24,2.47,1.08-1.08L50,89.16l-1.08,1.08Z" transform="translate(-0.8)"/></g></g></svg>