<svg xmlns="http://www.w3.org/2000/svg" viewBox="0 0 136.32 105.81"><defs><style>.cls-1,.cls-2,.cls-3{fill:none;stroke:#000;stroke-linecap:round;stroke-linejoin:round;}.cls-1{stroke-width:2.51px;}.cls-2{stroke-width:2.27px;}.cls-3{stroke-width:1.12px;}</style></defs><title>Asset 1</title><g id="Layer_2" data-name="Layer 2"><g id="Layer_1-2" data-name="Layer 1"><polyline class="cls-1" points="88.74 29.07 43.23 78.06 80.75 78.06 81.72 36.79"/><polyline class="cls-1" points="74.56 29.07 120.06 78.06 97.31 78.06 97.31 65.17 82.15 65.23 96.92 78.06"/><polyline class="cls-1" points="62.45 56.75 34.01 56.75 51.63 13.49 66.96 51.67"/><polyline class="cls-1" points="50.25 70.5 50.25 53.72 50.25 48 50.25 37.05"/><polyline class="cls-1" points="56.08 48 50.25 53.72 43.23 48"/><polyline class="cls-1" points="56.08 35.12 50.25 45.15 46.32 41.1"/><polyline class="cls-2" points="57.3 27.6 62.33 15.25 73.74 43.66"/><path d="M101,14.27a5.9,5.9,0,0,1,.47.44l.38.4c.26.26.52.5.8.73A9,9,0,0,0,104.47,17a9.41,9.41,0,0,0,4,1,9.76,9.76,0,0,0,4-.8,9.4,9.4,0,0,0,3.22-2.43,9.6,9.6,0,0,0,2.19-7.63A8.81,8.81,0,0,0,113.08.53a.29.29,0,0,1-.14-.37.28.28,0,0,1,.32-.15c1.11.27,2.21.46,3.34.81a13.67,13.67,0,0,1,3.17,1.48,12.86,12.86,0,0,1,4.66,5.27,12.38,12.38,0,0,1,1,7.08,12.82,12.82,0,0,1-3,6.59A12.53,12.53,0,0,1,109.15,25a11.85,11.85,0,0,1-3.24-1.62,12.18,12.18,0,0,1-2.52-2.55A12.38,12.38,0,0,1,101,14.27Zm.07.17c.18.6.45,1.07.6,1.53a13.3,13.3,0,0,0,.66,1.51,13.94,13.94,0,0,0,1.85,2.73,11.05,11.05,0,0,0,5.4,3.32A11.59,11.59,0,0,0,121.06,20,11.52,11.52,0,0,0,123.2,8.1,11.37,11.37,0,0,0,119.33,3a10.78,10.78,0,0,0-2.91-1.57c-1-.34-2.18-.58-3.29-.83l.18-.52a10.61,10.61,0,0,1,5.74,6.85,10.08,10.08,0,0,1,.07,4.7A9.76,9.76,0,0,1,117,15.81a10.59,10.59,0,0,1-3.87,2.75,10.46,10.46,0,0,1-4.66.67,9.82,9.82,0,0,1-4.38-1.52,10.39,10.39,0,0,1-1.75-1.48c-.26-.28-.5-.57-.73-.87l-.31-.47C101.19,14.78,101.18,14.62,101.08,14.44Z"/><line class="cls-3" x1="99.95" y1="0.99" x2="99.95" y2="4.45"/><line class="cls-3" x1="98.23" y1="2.72" x2="101.68" y2="2.72"/><line class="cls-3" x1="85.38" y1="11.08" x2="85.38" y2="14.53"/><line class="cls-3" x1="83.66" y1="12.81" x2="87.11" y2="12.81"/><line class="cls-3" x1="99.95" y1="24.53" x2="99.95" y2="27.98"/><line class="cls-3" x1="98.23" y1="26.25" x2="101.68" y2="26.25"/><path d="M49.26,96.61c0,1.67,1.54,2.51,4.6,2.51h1.6c2.1,0,3.15-.61,3.16-1.81A1.82,1.82,0,0,0,58,96c-.25-.26-1-.89-2.33-1.9a1.85,1.85,0,0,1-.87-1.4,1.45,1.45,0,0,1,.29-.88,1.91,1.91,0,0,1,.8-.58L61.45,89v1.52L56,92.67l2.67,2.18A3.3,3.3,0,0,1,60,97.35c0,1.18.71,1.77,2,1.77h.12c.11,0,.17.2.17.6v.15c0,.45-.06.68-.17.68h-.12a2.62,2.62,0,0,1-2.63-1.4c-.67.94-2,1.4-4,1.4H54q-6.15,0-6.15-3.79A6,6,0,0,1,48.08,95h1.4A5.93,5.93,0,0,0,49.26,96.61Zm12.12-8.72L55.1,90.46v-1l6.28-2.57Z"/><path d="M67.51,99.87c0,.45-.05.68-.16.68h-.08a2,2,0,0,1-1.9-1.1,3,3,0,0,1-2.7,1.1H62c-.41,0-.61-.23-.61-.68v-.15a.53.53,0,0,1,.61-.6h.61c1.29,0,2-.56,2-1.66l.07-1.4h1l.08,1.42c.06,1.09.54,1.64,1.43,1.64h.06c.11,0,.16.22.16.67Zm-3.62-6.66L65,92.13l1.08,1.09L65,94.29Z"/><path d="M72.72,99.87c0,.45,0,.68-.16.68h-.08a2,2,0,0,1-1.89-1.1,3.07,3.07,0,0,1-2.71,1.1h-.65c-.4,0-.61-.23-.61-.68v-.15a.54.54,0,0,1,.61-.6h.61c1.29,0,2-.56,2-1.66l.08-1.4h1l.08,1.42c.06,1.09.54,1.64,1.43,1.64h.06c.11,0,.16.22.16.67ZM67,103,68.09,102,69.17,103l-1.08,1.07Zm2.37,0L70.46,102,71.54,103l-1.08,1.07Z"/><path d="M77.93,99.87c0,.45-.05.68-.16.68H77.7a2,2,0,0,1-1.9-1.1,3.07,3.07,0,0,1-2.71,1.1h-.65c-.4,0-.6-.23-.6-.68v-.15a.53.53,0,0,1,.6-.6h.61c1.29,0,2-.56,2-1.66l.08-1.4h1l.08,1.42c.06,1.09.54,1.64,1.43,1.64h.06c.11,0,.16.22.16.67Zm-5.74,2.95,1.06-1,1,1-1,1.06Zm1.19,1.94,1.05-1.06,1.06,1.06-1.06,1Zm1.19-1.94,1.05-1,1,1-1,1.06Z"/><path d="M84.66,99.69a1.75,1.75,0,0,1-.21.29,2.3,2.3,0,0,1-1.85.71A3.39,3.39,0,0,1,80,99.44a2.45,2.45,0,0,1-2.19,1.11h-.16c-.4,0-.61-.23-.61-.68v-.15a.54.54,0,0,1,.61-.6h.12a1.47,1.47,0,0,0,1.56-1.3A4.82,4.82,0,0,1,80.1,96a2.45,2.45,0,0,1,2.05-1,2.62,2.62,0,0,1,2.15,1A3.16,3.16,0,0,1,85,97.55c.16,1,.59,1.57,1.3,1.57h.12c.1,0,.16.2.16.6v.15c0,.45-.06.68-.16.68h-.12A1.82,1.82,0,0,1,84.66,99.69Zm-2.17-.39a1.16,1.16,0,0,0,1.09-.55,1.19,1.19,0,0,0,.14-.53,1.91,1.91,0,0,0-.14-.74,1.81,1.81,0,0,0-.7-.88,1.33,1.33,0,0,0-.7-.18c-.85,0-1.35.57-1.49,1.7A2.21,2.21,0,0,0,82.49,99.3Z"/><path d="M87.7,100.55H86.27c-.41,0-.61-.23-.61-.68v-.15a.53.53,0,0,1,.61-.6h1.42c2.1,0,3.15-.61,3.15-1.81a1.84,1.84,0,0,0-.63-1.3c-.25-.26-1-.89-2.34-1.9a1.86,1.86,0,0,1-.86-1.4,1.39,1.39,0,0,1,.29-.88,1.79,1.79,0,0,1,.8-.58L93.67,89v1.52l-5.4,2.11,2.67,2.18a3.1,3.1,0,0,1,1.3,2.5C92.22,99.49,90.71,100.55,87.7,100.55Z"/><path d="M30,78.78,0,79.85c.86.06,158.11.13,133.75-1C133,78.86,30,78.78,30,78.78Z"/><line class="cls-3" x1="98.23" y1="2.72" x2="101.68" y2="2.72"/><line class="cls-3" x1="85.38" y1="11.08" x2="85.38" y2="14.53"/><line class="cls-3" x1="99.95" y1="24.53" x2="99.95" y2="27.98"/></g></g></svg>