<svg xmlns="http://www.w3.org/2000/svg" viewBox="0 0 72.7 91.13"><title>Asset 9</title><g id="Layer_2" data-name="Layer 2"><g id="Layer_6" data-name="Layer 6"><path d="M28.21,61H32A13,13,0,0,0,28.21,61Z"/><path d="M60.19,20.34A2.15,2.15,0,0,1,60,19a14.85,14.85,0,0,1,1-2.12V15.69A4.4,4.4,0,0,0,59.29,13c-.3-.21-.63-.37-.95-.56a4.15,4.15,0,0,0-4.41-6.25c0-.32-.07-.66-.14-1a4.05,4.05,0,0,0-6.34-2.37c-.56.4-.74.35-1-.27a4,4,0,0,0-7-.84l-.27.35A4,4,0,0,0,35,.06a4,4,0,0,0-3.38,3.1,10.79,10.79,0,0,0-2,0,3.7,3.7,0,0,0-2.86,2.38.76.76,0,0,1-.79.58,4,4,0,0,0-3.59,4.1.74.74,0,0,1-.35.72A4,4,0,0,0,21.46,17a1.08,1.08,0,0,1,.24.76,19.88,19.88,0,0,1-.26,2.16.67.67,0,0,1-.35.44,1.06,1.06,0,0,0-.72,1.25c.1.9.2,1.79.3,2.74H15.28l-3-12c-.25-1-.48-1.19-1.5-1.19H1.4c-1.08,0-1.4.33-1.4,1.41v3.25c0,1.11.32,1.43,1.45,1.43,1.77,0,3.54,0,5.31,0,.41,0,.62.09.72.54C8,20,8.56,22.15,9.12,24.41H1.42C.32,24.41,0,24.73,0,25.8v3.42a1.13,1.13,0,0,0,.83,1.26c.15.05.29.39.3.6.19,2.2.35,4.39.52,6.59L2.67,51c.22,2.82.44,5.64.64,8.47A1.79,1.79,0,0,0,4,61H20.3a1.35,1.35,0,0,0,.77-1.28c.24-3.27.51-6.53.76-9.8.21-2.77.41-5.53.62-8.29a1.11,1.11,0,0,1,.17-.48c.41,3.53.81,7.06,1.22,10.59.13,1.11.26,2.23.38,3.34a1.61,1.61,0,0,1,.81-.3l1.2-.11c-.21-1.79-.42-3.57-.62-5.36q-.69-5.88-1.36-11.77c-.27-2.33-.54-4.65-.81-7,.85-.22,1-.84,1-1.59,0-.94,0-1.89,0-2.83,0-1.44-.17-1.63-1.67-1.74l-.23-2c.2,0,.33,0,.46,0h4.56q.75,9.4,1.49,18.79a1.7,1.7,0,0,1,.79-.24l.28,0,.2,0,.74-.08q-.72-9.18-1.45-18.38h6q.2,7.69.4,15.38h0l1.46-1.06.53-.44q-.18-6.93-.37-13.89H43.7c-.07,2.49-.13,5-.2,7.47.35-.46.7-.92,1-1.39a1.82,1.82,0,0,1,1.05-.73c0-1.78.09-3.55.14-5.33h5a1.51,1.51,0,0,1,2.28-1.2h0a2.07,2.07,0,0,1,2,1.2h3.83c-.35,3-.7,6-1,9.05.64-.06,1.29-.1,1.95-.1h.11c.18-1.63.37-3.26.56-4.89s.39-3,.59-4.54V21C60.73,20.78,60.33,20.63,60.19,20.34ZM7.81,15.23H2.06v-2H9.91c.3,0,.5,0,.59.38.85,3.47,1.73,6.93,2.59,10.39a3.27,3.27,0,0,1,.05.41H11.22L9.93,19.26l-.72-2.92C9,15.48,8.69,15.24,7.81,15.23ZM19.09,59H5.33c-.24-3-.47-6-.7-9l3.7.53a5.46,5.46,0,0,0,5.12-1.77,3.64,3.64,0,0,1,4.36-1.06c.57.22,1.15.39,1.71.63a.63.63,0,0,1,.34.42C19.62,52.07,19.35,55.48,19.09,59Zm1-12.72c-.78-.26-1.5-.54-2.23-.74A5.28,5.28,0,0,0,12.28,47,4.26,4.26,0,0,1,8,48.36C7,48.16,6,48,4.94,47.9c-.27,0-.48-.07-.5-.42-.06-1-.16-2.08-.24-3.17a13.88,13.88,0,0,0,1.73.8,5.36,5.36,0,0,0,5.21-1l2.65-2.06a3.61,3.61,0,0,1,3.55-.66c.88.28,1.76.57,2.62.88.15.06.35.29.34.43C20.25,43.88,20.15,45,20.07,46.23Zm2.26-17.8h-2v2l.9.08c-.25,3.24-.5,6.48-.75,9.79-.8-.27-1.55-.5-2.28-.76a5.63,5.63,0,0,0-5.81,1c-.81.65-1.64,1.28-2.46,1.91a3.59,3.59,0,0,1-5.05-.3,3.22,3.22,0,0,1-1.09-2.33c-.14-2.83-.41-5.65-.63-8.47,0-.25,0-.51,0-.87H6.07v-2h-4v-2H22.33ZM58.26,17.78a1.31,1.31,0,0,0-.47,1.31,10.94,10.94,0,0,1,.11,1.19H23.39c.17-1,.3-2,.5-2.93a1.19,1.19,0,0,0-.55-1.41,1.93,1.93,0,0,1-.93-2,2,2,0,0,1,1.37-1.62,1.06,1.06,0,0,0,.75-1.48,2,2,0,0,1,2.52-2.58c.91.18,1.37-.15,1.42-1.06a2,2,0,0,1,1.18-1.9,2,2,0,0,1,2.2.32,1.09,1.09,0,0,0,1.36.14,1.08,1.08,0,0,0,.42-1.25,2,2,0,0,1,3.85-1.15,1.11,1.11,0,0,0,1.36.84c.29,0,.59,0,.88-.06a1.19,1.19,0,0,0,1.1-.76,2,2,0,0,1,2-1.33,2,2,0,0,1,1.85,1.76,1.28,1.28,0,0,0,.94,1A4.8,4.8,0,0,1,46.3,5a1.62,1.62,0,0,0,2.19-.43,1.93,1.93,0,0,1,2.45-.22,2,2,0,0,1,.79,2.33A1.33,1.33,0,0,0,52.1,8.4a1.12,1.12,0,0,0,1.64.12,2,2,0,0,1,2.75.36,2,2,0,0,1-.23,2.77c-.37.37-.66.74-.44,1.29s.49,1.26,1.32,1.33a1.87,1.87,0,0,1,1.73,1.38A1.9,1.9,0,0,1,58.26,17.78Z"/><path d="M8.17,30.46v-2h4v2Z"/><path d="M18.25,30.46h-4v-2h4Z"/><path d="M23.94,40.64a1.06,1.06,0,0,1,1.12-.6c2.06,0,4.11,0,6.17,0a1.15,1.15,0,0,0,.87-.36Q41.79,30,51.49,20.28c.75-.74,1-.74,1.79,0l3,3c.64.65.65.92.08,1.65A3.24,3.24,0,0,0,61,29.52c.69-.58,1-.56,1.61.06l3.93,3.93c.66.66.66,1,0,1.66l-4.4,4.4-.45.47h9.79c1,0,1.23.23,1.23,1.21v5.8c0,.81-.24,1.07-1,1.14a3.23,3.23,0,0,0-.11,6.43c1,.12,1.15.31,1.15,1.29v5.51c0,1.19-.18,1.38-1.35,1.38H25.14a1.17,1.17,0,0,1-1.2-.56v-7c.24-.53.72-.59,1.21-.64a3.23,3.23,0,0,0-.1-6.42,1.3,1.3,0,0,1-1.11-.58Zm9.7,19.74c.15.3-.19.81.54.81q14.15,0,28.29,0c.4,0,.5-.12.49-.51,0-.9,0-1.81,0-2.73h1.62v3.19h6.5V56.29a15.75,15.75,0,0,1-1.48-.58,4.86,4.86,0,0,1,1.11-9c.29-.07.39-.16.38-.46,0-.8,0-1.6,0-2.41V41.71H33.67v2.37H32.05V41.71H25.56c0,1.51,0,3,0,4.45,0,.36.12.47.45.56a4.67,4.67,0,0,1,3.55,3.87,4.52,4.52,0,0,1-1.8,4.62,14.81,14.81,0,0,1-2.16,1.18v4.74h6.48v-.75Zm18.8-38.57L34.21,40c.57,0,1.18,0,1.79,0a1.25,1.25,0,0,0,1-.42Q42.64,34,48.28,28.36c.68-.67,1-.67,1.7,0l8.4,8.4c.06.07.13.13.2.2a.84.84,0,0,1,0,1.29c-.48.5-1,1-1.46,1.47-.08.08-.14.18-.26.33a4.38,4.38,0,0,1,.74,0,3.13,3.13,0,0,0,3-1.25C62,37.26,63.55,35.85,65,34.41l-3.34-3.33a4.93,4.93,0,0,1-6-.41,4.66,4.66,0,0,1-1.49-2.62,4.87,4.87,0,0,1,.75-3.81Zm4.39,15.88L49.11,30,39.07,40l.18,0h15a.64.64,0,0,0,.42-.15C55.38,39.15,56.13,38.39,56.83,37.69Z"/><path d="M48.32,59.53H39.74c-.88,0-1.05-.14-1.19-1a1.58,1.58,0,0,0-1.36-1.36c-.88-.15-1.06-.35-1.06-1.23q0-4.5,0-9c0-.69.23-1.16,1-1.22a1.53,1.53,0,0,0,1.41-1.47c.09-.69.35-.93,1-.93H57.05c.69,0,1,.24,1,.94a1.62,1.62,0,0,0,1.46,1.49c.76.11,1,.34,1,1.1V56c0,.75-.22,1-1,1.11a1.58,1.58,0,0,0-1.45,1.43c-.1.77-.33,1-1.1,1ZM40.1,57.9H56.54a3.41,3.41,0,0,1,2.16-2.27.49.49,0,0,0,.18-.37q0-3.84,0-7.68a.39.39,0,0,0-.3-.44,3.1,3.1,0,0,1-1.92-1.89.45.45,0,0,0-.5-.35H40.47a.45.45,0,0,0-.5.35A2.67,2.67,0,0,1,38.44,47a1,1,0,0,0-.69,1.2,1.31,1.31,0,0,1,0,.28c0,2.25,0,4.49,0,6.74,0,.16.1.42.23.47A3.41,3.41,0,0,1,40.1,57.9Z"/><path d="M32.08,58.71V55.5h1.58v3.21Z"/><path d="M63,43.3h1.57v3.19H63Z"/><path d="M64.56,56.27H63V53.08h1.57Z"/><path d="M32.1,45.75h1.55v3.18H32.1Z"/><path d="M64.56,48.2v3.18H63V48.2Z"/><path d="M32.1,50.64h1.55v3.18H32.1Z"/><path d="M22.11,86.88c0,.46-.05.69-.15.69h-.17q-2.92,0-2.92-3.42V76.49H20.2v7.64c0,1.33.54,2,1.61,2H22q.15,0,.15.6Z"/><path d="M28.85,86.7a3.34,3.34,0,0,1-.21.29,2.33,2.33,0,0,1-1.86.71,3.39,3.39,0,0,1-2.59-1.25A2.42,2.42,0,0,1,22,87.57h-.16q-.6,0-.6-.69v-.15a.53.53,0,0,1,.6-.6H22a1.48,1.48,0,0,0,1.57-1.3A4.73,4.73,0,0,1,24.28,83a2.52,2.52,0,0,1,2-1A2.61,2.61,0,0,1,28.48,83a3.12,3.12,0,0,1,.67,1.53c.16,1,.6,1.56,1.31,1.56h.11c.11,0,.16.2.16.6v.15c0,.46-.05.69-.16.69h-.12A1.78,1.78,0,0,1,28.85,86.7Zm-2.18-.39a1.13,1.13,0,0,0,1.09-.55,1,1,0,0,0,.14-.53,1.7,1.7,0,0,0-.14-.73,1.72,1.72,0,0,0-.7-.88,1.33,1.33,0,0,0-.7-.18c-.85,0-1.34.56-1.49,1.69A2.21,2.21,0,0,0,26.67,86.31Z"/><path d="M35.93,86.88q0,.69-.15.69H35.7a2,2,0,0,1-1.9-1.1,3.09,3.09,0,0,1-2.7,1.1h-.66q-.6,0-.6-.69v-.15a.53.53,0,0,1,.6-.6h.62c1.28,0,2-.55,2-1.66l.08-1.39h1.05l.07,1.41c.07,1.09.54,1.64,1.43,1.64h.07c.1,0,.15.22.15.67Zm-3.62-6.66,1.08-1.08,1.09,1.09L33.4,81.31Z"/><path d="M41.14,86.88q0,.69-.15.69h-.08a2,2,0,0,1-1.9-1.1,3.09,3.09,0,0,1-2.7,1.1h-.66q-.6,0-.6-.69v-.15a.53.53,0,0,1,.6-.6h.62c1.28,0,2-.55,2-1.66l.08-1.39h1.05l.07,1.41c.07,1.09.54,1.64,1.43,1.64H41c.1,0,.15.22.15.67ZM35.43,90,36.51,89l1.08,1.08-1.08,1.08Zm2.38,0L38.89,89,40,90.05l-1.08,1.08Z"/><path d="M50.5,87.56a1.84,1.84,0,0,1-1.9-1.09,2.6,2.6,0,0,1-2.23,1.1,2.56,2.56,0,0,1-2.3-1.1,2.65,2.65,0,0,1-2.52,1.1h-.67c-.41,0-.61-.23-.61-.69v-.15a.53.53,0,0,1,.61-.6h.68a1.68,1.68,0,0,0,1.86-1.8l.07-1.25h1.06l.08,1.26c.07,1.19.66,1.79,1.76,1.79.91,0,1.41-.6,1.48-1.79L48,83.08h1l.08,1.26c.07,1.19.53,1.79,1.38,1.79s1.11-.58,1.11-1.76V82h1.37v2.4C52.94,86.5,52.13,87.56,50.5,87.56Z"/></g></g></svg>