<svg xmlns="http://www.w3.org/2000/svg" viewBox="0 0 62.09 84.06"><title>Asset 5</title><g id="Layer_2" data-name="Layer 2"><g id="Layer_1-2" data-name="Layer 1"><path d="M21,64.27c-1.2-.2-2.42-.35-3.6-.62A22,22,0,0,1,1,47,22,22,0,0,1,12.3,22.81c1-.53,2-.94,3.14-1.44l-2.87-1.66a3.9,3.9,0,0,1-2.65,2.37,3.41,3.41,0,0,1-2.38-.47A3.18,3.18,0,0,1,5.9,19.18a4.11,4.11,0,0,1,.8-2.69,22.32,22.32,0,0,1-1.85-2.15A5.06,5.06,0,0,1,4.6,8.92C5.27,7.66,6,6.42,6.75,5.21a5.21,5.21,0,0,1,5.7-2.42c7.49,1.44,15,3,22.44,4.58,1.67.35,3.28,1,5,1.47l.25-.42C41.59,6,43,3.51,44.44,1.06a4.16,4.16,0,0,1,.41-.62A1.22,1.22,0,0,1,46.37.15,1.23,1.23,0,0,1,47,1.59a3,3,0,0,1-.35.72L40.36,13.12c-.81,1.4-.59,2.23.8,3,2,1.15,4,2.29,6,3.45a4.14,4.14,0,0,0,3.62.48,8.72,8.72,0,0,1,3.58-.65c.15,0,.39-.26.5-.45L60,10a3.33,3.33,0,0,1,.41-.62A1.2,1.2,0,0,1,62,9.14a1.22,1.22,0,0,1,.57,1.38,4,4,0,0,1-.34.73l-4.83,8.4c-.12.19-.22.39-.38.68a1.63,1.63,0,0,1,.23.11,2.52,2.52,0,0,1,.71,3.6q-3.3,5.76-6.63,11.52a5.21,5.21,0,0,1-3.23,2.54,5.82,5.82,0,0,1-3.07,0c-.59-.16-.9.12-.81.73a22.05,22.05,0,0,1-14,24,20.63,20.63,0,0,1-6.11,1.33c-.12,0-.23.06-.35.08ZM25.57,7.88c.42,1.56.82,3,1.21,4.5s-.29,2.13-1.73,1.88-2.57-.47-3.85-.67a1.5,1.5,0,0,1-1.35-1.25c-.47-1.82-1-3.63-1.46-5.45a.64.64,0,0,0-.6-.58c-1-.16-2-.4-3-.57a21.67,21.67,0,0,0-3.55-.5A2.62,2.62,0,0,0,8.86,9.17,4.29,4.29,0,0,0,10.7,11Q20,16.3,29.2,21.65a4,4,0,0,0,2.13.46,5.59,5.59,0,0,1,2.46.38,40.72,40.72,0,0,1,4.86,2.86,6.87,6.87,0,0,1,1.93,2.15,4.27,4.27,0,0,0,1.68,1.64c1.62.88,3.18,1.86,4.81,2.71,1.33.69,3,.47,3.69-.58,1.77-2.85,3.41-5.76,5.13-8.69A3.6,3.6,0,0,0,53,22.06c-1.1.28-2.19.59-3.29.88-1.82.48-3.64,1-5.46,1.44a1.2,1.2,0,0,1-1.57-1.24,1.23,1.23,0,0,1,1-1.18l1.63-.46-.61-.38c-1.67-1-3.34-1.92-5-2.89a4.26,4.26,0,0,1-2.17-5,15.91,15.91,0,0,1,1-2.17L34.73,9.83c.43,1.6.82,3,1.18,4.44a1.25,1.25,0,0,1-1.53,1.66c-1.37-.22-2.74-.48-4.11-.69A1.51,1.51,0,0,1,28.93,14q-.67-2.61-1.4-5.21c-.06-.21-.2-.5-.38-.55A10.64,10.64,0,0,0,25.57,7.88ZM17.09,26.79c-.59,1-1.16,2-1.69,3a.79.79,0,0,0,.1.64c1.1,1.73,2.23,3.44,3.33,5.17a.83.83,0,0,0,.8.43c1.89,0,3.77,0,5.66,0a.88.88,0,0,0,.84-.48c.55-.88,1.12-1.75,1.7-2.6a1.24,1.24,0,0,1,2.09-.2,1.27,1.27,0,0,1,0,1.61c-.59.9-1.2,1.78-1.76,2.71a1.12,1.12,0,0,0-.12.84c.57,1.84,1.16,3.66,1.79,5.48a.9.9,0,0,0,.56.52c1.73.42,3.47.78,5.2,1.19a.86.86,0,0,0,.93-.26c1.27-1.31,2.56-2.59,3.84-3.89.11-.11.19-.24.32-.4a3.72,3.72,0,0,1-2.79-2.29,3.86,3.86,0,0,1,.74-3.51c-.78-.49-1.62-.82-1.95-1.78a4.26,4.26,0,0,0-1.83-2.2q-2-1.23-4-2.35a1.91,1.91,0,0,0-1.13-.25,5.9,5.9,0,0,1-4.4-1.07c-.64-.4-1.31-.76-2-1.14C21.66,29.18,18.79,28.76,17.09,26.79ZM8.89,45.14l.23,0c1.85-.42,3.71-.82,5.56-1.26a.75.75,0,0,0,.42-.45c.63-1.86,1.23-3.73,1.82-5.6a.89.89,0,0,0-.08-.68q-1.71-2.7-3.48-5.36a.72.72,0,0,0-.59-.24q-3.51.63-7,1.31a.91.91,0,0,0-.55.41,18.6,18.6,0,0,0-1.95,5.85.78.78,0,0,0,.2.58c1.68,1.75,3.37,3.48,5.07,5.22A1.82,1.82,0,0,0,8.89,45.14Zm12.31,8c0-.83,0-1.66,0-2.48a1,1,0,0,0-.36-.7Q18.45,48.19,16,46.49a1.17,1.17,0,0,0-.84-.16c-1.62.33-3.22.74-4.85,1.05a1,1,0,0,0-.93,1c-.23,2.35-.53,4.69-.77,7a1.08,1.08,0,0,0,.28.78,18.13,18.13,0,0,0,5.9,3.94.92.92,0,0,0,.76-.07c1.75-1.21,3.49-2.46,5.2-3.72a1.15,1.15,0,0,0,.39-.75C21.23,54.8,21.2,54,21.2,53.14Zm2.53,0c0,.83,0,1.66,0,2.48a1,1,0,0,0,.37.68Q27,58.1,30,59.87a.9.9,0,0,0,.72,0,18.89,18.89,0,0,0,5.64-4,1.12,1.12,0,0,0,.26-.8c-.34-2.34-.73-4.66-1.1-7a.62.62,0,0,0-.55-.62c-1.78-.38-3.55-.8-5.33-1.18a1.12,1.12,0,0,0-.73.17c-1.6,1.14-3.2,2.29-4.77,3.47a1.08,1.08,0,0,0-.38.75C23.7,51.49,23.73,52.3,23.73,53.11Zm-17-42.57-.16,0a6.7,6.7,0,0,0,0,1.18,3.57,3.57,0,0,0,1.93,2.67q9.44,5.46,18.89,10.88a3.22,3.22,0,0,0,1.77.34,5,5,0,0,1,2.83.48c1.34.74,2.67,1.5,4,2.3a7.83,7.83,0,0,1,3,3.31,1.36,1.36,0,0,0,.5.51c1.69,1,3.4,2,5.1,3a3.93,3.93,0,0,0,2.31.58,2.06,2.06,0,0,0,1.85-1.08c-1.83.1-3.26-.85-4.73-1.7s-2.64-1.55-4-2.29a2.48,2.48,0,0,1-1.18-1.29,4.71,4.71,0,0,0-1.92-2.3c-1.3-.81-2.62-1.59-4-2.31a2.55,2.55,0,0,0-1.37-.22A5.62,5.62,0,0,1,28,23.85c-6.2-3.58-12.41-7.14-18.59-10.76A14,14,0,0,1,7.2,11.22,3.81,3.81,0,0,1,6.71,10.54ZM22.48,48c1.6-1.16,3.16-2.28,4.7-3.43a.63.63,0,0,0,.17-.55q-.8-2.58-1.66-5.13a.69.69,0,0,0-.51-.38q-2.7,0-5.4,0a.68.68,0,0,0-.51.37c-.58,1.7-1.13,3.42-1.66,5.14a.62.62,0,0,0,.16.54C19.31,45.72,20.88,46.85,22.48,48ZM6.36,53.12c.24-2,.48-4,.68-5.89a.8.8,0,0,0-.25-.52q-1.73-1.78-3.47-3.56A2.09,2.09,0,0,0,3,43,18.51,18.51,0,0,0,6.36,53.12ZM41.87,43.05c-1.31,1.28-2.58,2.52-3.83,3.77a.62.62,0,0,0-.13.44c.28,1.81.58,3.62.88,5.46C40.34,51.07,42,46,41.87,43.05ZM15.72,24A19.42,19.42,0,0,0,7.35,30c1.87-.35,3.6-.67,5.32-1a.91.91,0,0,0,.49-.4c.78-1.32,1.54-2.64,2.3-4C15.54,24.45,15.59,24.3,15.72,24ZM27.25,61.15c-1.59-1-3-1.86-4.49-2.73a.54.54,0,0,0-.48,0c-1.3.91-2.59,1.84-4,2.84A19.12,19.12,0,0,0,27.25,61.15ZM23.94,11.5c-.38-1.41-.72-2.69-1.08-4a.38.38,0,0,0-.24-.24c-.51-.12-1-.21-1.61-.32.37,1.39.71,2.69,1.08,4a.61.61,0,0,0,.37.33C22.9,11.36,23.35,11.41,23.94,11.5ZM33,13.14c-.21-.84-.41-1.61-.62-2.38-.42-1.57-.42-1.57-2-1.88,0,0-.07,0-.16,0,.29,1.11.59,2.22.88,3.33a1,1,0,0,0,.11.35.72.72,0,0,0,.35.28C32,13,32.44,13.05,33,13.14ZM19.53,23.74a6.45,6.45,0,0,0-.26,1.6c0,.18.66.53.81.45a6.31,6.31,0,0,0,1.16-1.07ZM9,17.63c-.25.52-.82.93-.44,1.52a1.13,1.13,0,0,0,.87.44c.61-.07.72-.68,1-1.16Zm31.69,18.3a5.73,5.73,0,0,0-.31,1.56c0,.19.65.55.81.47a6.56,6.56,0,0,0,1.17-1.06Z" transform="translate(-0.47)"/><path d="M5.37,84.06Q.78,84.06.8,79.59a8.38,8.38,0,0,1,.47-2.65H2.59a9.38,9.38,0,0,0-.43,2.63c0,2.06,1.07,3.1,3.22,3.1,1.9,0,2.86-1,2.86-3.07l0-10.3H9.59V78c0,.73,0,1.44-.07,2.12C9.32,82.76,7.93,84.06,5.37,84.06Z" transform="translate(-0.47)"/><path d="M15.31,79.69q0,.69-.15.69H15q-2.93,0-2.92-3.42V69.3H13.4v7.64c0,1.33.54,2,1.62,2h.14q.15,0,.15.6Z" transform="translate(-0.47)"/><path d="M20.52,79.69q0,.69-.15.69h-.08a2,2,0,0,1-1.9-1.1,3.08,3.08,0,0,1-2.7,1.1H15q-.6,0-.6-.69v-.15a.53.53,0,0,1,.6-.6h.62c1.28,0,2-.55,2-1.66l.08-1.4H18.8l.08,1.42c.06,1.09.53,1.64,1.42,1.64h.07c.1,0,.15.22.15.67Zm-4.11,3.16,1.08-1.08,1.09,1.09L17.5,83.94Z" transform="translate(-0.47)"/><path d="M20.92,80.38h-.67c-.41,0-.61-.23-.61-.69v-.15a.53.53,0,0,1,.61-.6h.67c1.41,0,2.12-.66,2.12-2v-2.2h1.3V77Q24.34,80.38,20.92,80.38Zm-.69-8.32L21.31,71l1.08,1.08-1.08,1.08Zm2.37,0L23.68,71l1.08,1.08-1.08,1.08Z" transform="translate(-0.47)"/><path d="M31.42,78.94H32c.11,0,.16.22.16.67v.08c0,.46,0,.69-.16.69h-.65C31,82.8,29.2,84,26,84.06V82.72c2.26,0,3.61-.79,4.07-2.34H29.5q-3.43,0-3.44-2.68a3.24,3.24,0,0,1,.68-2.07,2.33,2.33,0,0,1,1.91-.86c1.51,0,2.42,1.08,2.71,3.23A7.94,7.94,0,0,1,31.42,78.94Zm-1.35,0c-.12-1.82-.62-2.73-1.52-2.73a1.06,1.06,0,0,0-.88.42,1.62,1.62,0,0,0-.3,1c0,.87.68,1.32,2.06,1.34Z" transform="translate(-0.47)"/><path d="M38.23,76.16c0,.15,0,.32,0,.51q.15,3.7-4.36,3.71h-2c-.41,0-.61-.23-.61-.69v-.15a.53.53,0,0,1,.61-.6H34c1.88,0,2.84-.45,2.9-1.34h-.55c-2.19,0-3.28-.82-3.28-2.45a3.23,3.23,0,0,1,.68-2.06,2.26,2.26,0,0,1,1.91-.86Q38,72.23,38.23,76.16ZM34.15,69.6l1.08-1.08,1.09,1.09-1.08,1.08Zm2.73,6.62c-.11-1.7-.57-2.55-1.36-2.55a1,1,0,0,0-.88.43,1.61,1.61,0,0,0-.3,1c0,.75.63,1.13,1.9,1.15Z" transform="translate(-0.47)"/><path d="M22.61,27l5,2.52a41.07,41.07,0,0,1,8.61,5.81L40.43,39l-.89-6L22.48,23.17Z" transform="translate(-0.47)"/></g></g></svg>