<svg xmlns="http://www.w3.org/2000/svg" viewBox="0 0 87.5 99.11"><defs><style>.cls-1,.cls-2,.cls-3,.cls-4{fill:none;stroke:#000;stroke-miterlimit:10;}.cls-1{stroke-width:2.07px;}.cls-2{stroke-width:2.01px;}.cls-3{stroke-width:2px;}.cls-4{stroke-width:3px;}</style></defs><title>Asset 10</title><g id="Layer_2" data-name="Layer 2"><g id="Layer_1-2" data-name="Layer 1"><polyline class="cls-1" points="46.62 23.52 57.55 23.52 57.55 1.22 29.23 1.22 29.23 23.52 40.25 23.52"/><polyline class="cls-2" points="47.81 35.65 57.4 35.65 57.4 28.19 49.09 28.19"/><polyline class="cls-2" points="38.65 28.19 29.39 28.19 29.39 35.65 39.13 35.65"/><rect class="cls-3" x="2.78" y="1" width="22.09" height="34.7"/><rect class="cls-3" x="61.51" y="1.22" width="22.09" height="34.7"/><path d="M29.88,97.17c1.78,0,2.89-.53,3.32-1.58.25-.6,0-.91-.58-.92h-.48c-1.24,0-1.87-.6-1.89-1.72A3.22,3.22,0,0,1,31.71,90a5.28,5.28,0,0,1,2.82-.76v1.51a4.14,4.14,0,0,0-1.66.3,1.86,1.86,0,0,0-1.25,1.74c0,.25.16.37.48.37h.32c1.48,0,2.23.55,2.24,1.64a3.57,3.57,0,0,1-.13.92q-.73,2.79-4.71,2.8c-3.15,0-4.73-1.48-4.72-4.47a9,9,0,0,1,.47-3h1.31a10.66,10.66,0,0,0-.42,2.94Q26.46,97.18,29.88,97.17Z"/><path d="M40.79,95c-.34,2.67-2.19,4-5.53,4.08V97.77q4.23-.06,4.23-3.69a6.6,6.6,0,0,0-.73-2.66h1.55l.39,1.39c.22.78.61,1.17,1.18,1.17h.22c.11,0,.16.18.16.56v.19c0,.45,0,.68-.16.68H42A1.41,1.41,0,0,1,40.79,95Z"/><path d="M42,95.42c-.41,0-.61-.23-.61-.68v-.15A.53.53,0,0,1,42,94h.53a1.75,1.75,0,0,0,2-2V84.34H45.8V92c0,2.26-1.11,3.38-3.33,3.38Z"/><path d="M51.51,94.74c0,.45,0,.68-.16.68h-.16q-2.92,0-2.92-3.42V84.34H49.6V92c0,1.33.53,2,1.61,2h.14c.11,0,.16.2.16.6Z"/><path d="M52.67,95.42H51.24c-.41,0-.61-.23-.61-.68v-.15a.53.53,0,0,1,.61-.6h1.42c2.1,0,3.15-.61,3.15-1.81a1.84,1.84,0,0,0-.63-1.3c-.25-.26-1-.89-2.33-1.9a1.85,1.85,0,0,1-.87-1.4,1.45,1.45,0,0,1,.29-.88,1.85,1.85,0,0,1,.8-.58l5.57-2.21v1.52l-5.4,2.11,2.67,2.18a3.1,3.1,0,0,1,1.3,2.5C57.19,94.36,55.68,95.42,52.67,95.42ZM58.6,82.74l-6.28,2.57v-1l6.28-2.56Z"/><path d="M45.35,22a11.77,11.77,0,0,1,2,.84,4,4,0,0,1,1.73,3.43,4.56,4.56,0,0,0,0,.74.67.67,0,0,0,.2.42,1.86,1.86,0,0,1,.78,1.42A13.21,13.21,0,0,1,50,31.07a1.81,1.81,0,0,1-.56,1A1.31,1.31,0,0,0,49,33a3.18,3.18,0,0,1-1,1.91,1.12,1.12,0,0,0,.31,1.65c1.62.68,3.24,1.34,4.85,2a8,8,0,0,1,1.17.66.9.9,0,0,1,.42,1,1,1,0,0,1-.73.77,7.81,7.81,0,0,0-1.77.85,4.64,4.64,0,0,0-1.55,3.37h4c.82,0,1.18.37,1.18,1.21,0,2.85,0,5.71,0,8.56V68.86c0,1-.31,1.34-1.33,1.34H32.24c-1,0-1.32-.31-1.32-1.3V46.46c0-1,.34-1.3,1.29-1.3h3.9a4.2,4.2,0,0,0-3-4.16,1.79,1.79,0,0,1-.39-.13.9.9,0,0,1-.28-1.55,5.63,5.63,0,0,1,1.27-.76c1.62-.7,3.25-1.36,4.88-2a1.07,1.07,0,0,0,.33-1.61,3.63,3.63,0,0,1-1.08-2.22.71.71,0,0,0-.21-.41,1.92,1.92,0,0,1-.79-1.47,10.27,10.27,0,0,1,.07-2.08,4.36,4.36,0,0,1,.65-1.19,1.64,1.64,0,0,0,.28-.62,5.55,5.55,0,0,1,.51-2.66,4.11,4.11,0,0,1,3-2.15.56.56,0,0,0,.16-.07Zm-12.52,25V68.29H54.05V47.08Zm18.74-7.16c-.21-.09-.35-.16-.49-.21l-3.56-1.49A2.31,2.31,0,0,1,46,35.84c0-.39,0-.78,0-1.17a1.06,1.06,0,0,1,.56-1,1.32,1.32,0,0,0,.67-1.2,3.24,3.24,0,0,1,0-.83c.09-.27.28-.66.49-.71.56-.12.52-.46.51-.86s0-.53,0-.79A.49.49,0,0,0,48,29c-.65-.26-.79-.44-.8-1.13,0-.5,0-1,0-1.49a2.3,2.3,0,0,0-2.45-2.41c-.83,0-1.67,0-2.51,0a2.31,2.31,0,0,0-2.5,2.5c0,.51,0,1,0,1.53s-.12.79-.49.87c-.6.13-.55.5-.54.92q0,.33,0,.66c0,.25,0,.38.33.44a.86.86,0,0,1,.69.84c0,.25,0,.5,0,.74a1.37,1.37,0,0,0,.71,1.28,1,1,0,0,1,.54,1c0,.45,0,.9,0,1.35A2.1,2.1,0,0,1,39.82,38c-.6.32-1.24.56-1.87.83l-2.56,1.07c0,.07,0,.11,0,.12A6.44,6.44,0,0,1,38,44.7c.05.39.19.47.55.47h9.87l.46,0A6.87,6.87,0,0,1,51.57,39.92Z"/><path d="M37.82,52.07V63.3H49.09c0-.31,0-.6,0-.89a1,1,0,0,1,.95-1,.93.93,0,0,1,.92,1c0,.57,0,1.15,0,1.72a1,1,0,0,1-1,1c-.37,0-.74,0-1.11,0H37.44c-.14,0-.28,0-.42,0-.76,0-1.09-.35-1.09-1.13,0-1.86,0-3.72,0-5.59V51.41c0-.95.3-1.24,1.26-1.25H49.71c.95,0,1.25.3,1.25,1.25,0,1.55,0,3.11,0,4.66a.93.93,0,0,1-1.21,1A1,1,0,0,1,49.09,56c0-1.13,0-2.26,0-3.4v-.54Z"/><circle cx="13.75" cy="45.38" r="2.61"/><line class="cls-4" x1="13.75" y1="72.89" x2="13.75" y2="45.38"/><circle cx="73.75" cy="45.38" r="2.61"/><line class="cls-4" x1="73.75" y1="72.89" x2="73.75" y2="45.38"/><path class="cls-3" d="M73.75,48c-29.06,23.32-60,0-60,0A17.29,17.29,0,0,1,0,54.47"/><path class="cls-3" d="M73.75,47.9a17.28,17.28,0,0,0,13.74,6.48"/><line class="cls-3" x1="4.56" y1="72.89" x2="22.88" y2="72.89"/><line class="cls-3" x1="64.56" y1="72.89" x2="82.88" y2="72.89"/></g></g></svg>