<svg xmlns="http://www.w3.org/2000/svg" viewBox="0 0 107.45 113.3"><title>Asset 4</title><g id="Layer_2" data-name="Layer 2"><g id="Layer_1-2" data-name="Layer 1"><path d="M107.45,88.55,74.9,81.05a2.82,2.82,0,0,0-1.12,0Q55.95,84.41,38.1,87.83c-1.86.36-3.57-.26-5.31-.58-10.69-2-21.36-4-32-6a3.33,3.33,0,0,1-.55-.17c.3-2.66.6-5.3.91-7.94q1.2-10.22,2.41-20.42c.25-2.14.4-4.28.77-6.39A28,28,0,0,0,4.08,38Q2.75,27.05,1.44,16.12C1,12.2.49,8.29,0,4.22c.46.17.83.3,1.18.45q16.2,6.84,32.39,13.7a2.23,2.23,0,0,0,2-.07L73.23.29a2.3,2.3,0,0,1,2-.1q15.49,5.93,31,11.77c.8.3,1,.64.93,1.49-1.51,11.63-3,23.27-4.43,34.92a18.45,18.45,0,0,0,.37,4.22q1.41,12,2.85,23.92.63,5.31,1.27,10.62a3.06,3.06,0,0,0,.17.59ZM71.12,45.77c0,.46,0,.77,0,1.07l2.7,28.22c.22,2.25.22,2.25,2.45,2.74.41.09.81.19,1.22.27l7.19,1.53c-.82-7.91-1.61-15.66-2.42-23.47.42,0,.66,0,.9,0,3.78.45,7.55,1,11.34,1.34,1.09.12,1.25.56,1,1.48L83.8,57.67c.74,7.22,1.48,14.24,2.16,21.27a1.21,1.21,0,0,0,1.13,1.26c5.09,1.15,10.18,2.34,15.26,3.5a7.86,7.86,0,0,0,.94.11c-1.38-11.56-2.74-23-4.11-34.48Zm-3.62.66h-.4c-5.19.79-10.39,1.61-15.59,2.34-1,.14-1.18.46-1.18,1.41A13.76,13.76,0,0,1,39.87,63.5c-.95.23-1.16.62-1.25,1.51-.4,4.27-.88,8.53-1.33,12.8-.23,2.15-.45,4.31-.69,6.66L48,82.29a1.7,1.7,0,0,0,.09-.35c0-.62,0-1.24,0-1.87a19.85,19.85,0,0,1,3.09-10.61c3.14-4.75,7.82-6.94,13.22-7.91,1.48-.27,3-.4,4.55-.6C68.45,56.06,68,51.25,67.5,46.43Zm4.71-23.2,29.19,7.38c.65-5.07,1.25-10,1.92-14.95.1-.78-.15-1.06-.85-1.32Q92.32,10.55,82.19,6.7l-8.07-3ZM7,29.62a1.37,1.37,0,0,0-.09.35c.44,4.3.89,8.6,1.32,12.9.06.67.47.72,1,.8,4.31.65,8.62,1.31,12.91,2,.85.14,1.27,0,1.62-.87a13.57,13.57,0,0,1,9.12-8.11c.55-.16,1.12-.26,1.63-.37,0-.15.06-.18.06-.21C34,31.54,33.52,27,33,22.4a.92.92,0,0,0-.47-.59c-3.87-1.66-7.75-3.29-11.72-5-.32,3.65-1.42,6.85-4.21,9.26S10.47,29.3,7,29.62Zm65.11-5c-.46,6-.91,11.77-1.37,17.67l28.79,3.48L101.23,32ZM70.23,5.8c-.28.09-.48.14-.66.22Q53.37,13.75,37.2,21.5a1.25,1.25,0,0,0-.57,1c.45,4.37.95,8.74,1.47,13.1a1,1,0,0,0,.52.74c1.63.54,3.27,1,5,1.53a3.51,3.51,0,0,0,.28-.51c1.43-3.78,2.9-7.54,4.25-11.34a1.53,1.53,0,0,1,1.44-1.26c6.11-.75,12.22-1.55,18.33-2.31.65-.08.85-.34.9-1,.23-2.8.52-5.59.77-8.38C69.79,10.7,70,8.29,70.23,5.8ZM7.84,47.07,4.13,78.26l11.34,2.11c.06-.28.09-.41.12-.54.73-4.72,1.45-9.44,2.23-14.15a2.53,2.53,0,0,1,.85-1.41c2.25-1.88,4.57-3.7,6.77-5.47a37.1,37.1,0,0,1-2.12-4.55,38.79,38.79,0,0,1-.94-4.93ZM68.57,23.74l-6.17.79L50.46,26.06c-.51.07-.94.13-1.14.8a57.39,57.39,0,0,1-4.66,12,14.69,14.69,0,0,1,4.78,6.17c.08.19.56.32.83.28,2.44-.33,4.86-.7,7.29-1.06l9.59-1.46C67.63,36.44,68.09,30.14,68.57,23.74Zm-42.12,36c-1.73,1.38-3.43,2.86-5.25,4.16-1.44,1-2.43,2.17-2.38,4a9.17,9.17,0,0,1-.24,1.53c-.57,3.68-1.13,7.36-1.72,11.15l16.22,3c.71-6.7,1.39-13.24,2.08-19.77C31.61,63.38,30.29,62.74,26.45,59.77ZM69,62.51C55.65,62.67,48.64,71,49.64,82l21-4c-.5-5.14-1-10.13-1.47-15.11A2,2,0,0,0,69,62.51ZM36.47,61.19A11.14,11.14,0,1,0,25.35,50,11.13,11.13,0,0,0,36.47,61.19ZM6.66,28.28c1.07-.15,2-.26,3-.43,5.77-1,9.45-5.12,9.74-10.73a1.06,1.06,0,0,0-.77-1.23C14.71,14.28,10.83,12.63,7,11L4.32,9.88Z"/><path d="M43.26,50a6.78,6.78,0,1,1-6.74-6.76A6.8,6.8,0,0,1,43.26,50Z"/><path d="M30.47,111.35c1.79,0,2.9-.53,3.32-1.57q.38-.91-.57-.93h-.48c-1.25,0-1.88-.59-1.89-1.72a3.21,3.21,0,0,1,1.46-2.9,5.24,5.24,0,0,1,2.81-.75V105a4.21,4.21,0,0,0-1.65.31A1.84,1.84,0,0,0,32.22,107c0,.25.16.38.47.38H33c1.49,0,2.23.55,2.24,1.64a3.12,3.12,0,0,1-.12.91q-.75,2.79-4.71,2.81c-3.16,0-4.73-1.49-4.73-4.48a9,9,0,0,1,.48-3h1.31a10.67,10.67,0,0,0-.42,3Q27.06,111.35,30.47,111.35Z"/><path d="M41.39,109.22q-.53,4-5.53,4.08V112q4.23,0,4.22-3.69a6.53,6.53,0,0,0-.72-2.65H40.9l.39,1.39c.22.77.62,1.16,1.19,1.16h.22c.1,0,.16.19.16.56v.19c0,.46-.06.69-.16.69h-.13A1.4,1.4,0,0,1,41.39,109.22Z"/><path d="M48,108.21c-.67.93-2,1.4-4,1.4H42.57c-.41,0-.61-.23-.61-.69v-.15a.53.53,0,0,1,.61-.6H44c2.1,0,3.15-.6,3.16-1.8a1.88,1.88,0,0,0-.64-1.31c-.25-.25-1-.89-2.33-1.9a1.83,1.83,0,0,1-.87-1.4,1.42,1.42,0,0,1,.29-.87,1.87,1.87,0,0,1,.8-.59L50,98.09v1.53l-5.4,2.1,2.67,2.18a3.28,3.28,0,0,1,1.3,2.5c.05,1.18.72,1.77,2,1.77h.12c.1,0,.16.2.16.6v.15c0,.46-.06.69-.16.69h-.12A2.63,2.63,0,0,1,48,108.21Zm2-11.28-6.28,2.56v-1l6.28-2.57Z"/><path d="M60.22,109.6a1.85,1.85,0,0,1-1.91-1.09,2.6,2.6,0,0,1-2.23,1.1,2.53,2.53,0,0,1-2.29-1.1,2.67,2.67,0,0,1-2.53,1.1h-.67c-.41,0-.61-.23-.61-.69v-.15a.53.53,0,0,1,.61-.6h.69a1.67,1.67,0,0,0,1.85-1.8l.08-1.25h1l.08,1.26c.07,1.19.66,1.79,1.76,1.79.92,0,1.41-.6,1.48-1.79l.08-1.26h1.06l.07,1.26c.08,1.19.54,1.79,1.38,1.79s1.12-.59,1.12-1.76V104h1.36v2.39C62.65,108.53,61.84,109.6,60.22,109.6Zm-4.52-7.34,1.06-1.06,1.05,1.07-1.05,1Zm1.19-1.93,1-1.06L59,100.33l-1.06,1.06Zm1.19,1.93,1.05-1.06,1,1.07-1,1Z"/><path d="M64.36,107.94a9.34,9.34,0,0,0,1.89.2c1.82,0,2.73-.46,2.73-1.39s-1-2.09-2.88-3.3l.57-1.37c2.51,1.52,3.77,3.07,3.76,4.64q0,2.86-4.08,2.87a8.9,8.9,0,0,1-2-.19Z"/><path d="M75.28,109.22q-.52,4-5.53,4.08V112q4.23,0,4.22-3.69a6.53,6.53,0,0,0-.72-2.65h1.54l.39,1.39c.22.77.62,1.16,1.19,1.16h.22c.11,0,.16.19.16.56v.19c0,.46,0,.69-.16.69h-.13A1.4,1.4,0,0,1,75.28,109.22Z"/><path d="M77.89,109.61H76.46c-.41,0-.61-.23-.61-.69v-.15a.53.53,0,0,1,.61-.6h1.42c2.1,0,3.15-.6,3.16-1.8a1.84,1.84,0,0,0-.64-1.31c-.25-.25-1-.89-2.33-1.9a1.83,1.83,0,0,1-.87-1.4,1.42,1.42,0,0,1,.29-.87,1.93,1.93,0,0,1,.8-.59l5.57-2.21v1.53l-5.4,2.1,2.67,2.18a3.09,3.09,0,0,1,1.3,2.5Q82.4,109.61,77.89,109.61Zm5.93-12.68-6.28,2.56v-1l6.28-2.57Z"/></g></g></svg>