<svg xmlns="http://www.w3.org/2000/svg" viewBox="0 0 92.04 108.17"><defs><style>.cls-1,.cls-2,.cls-3,.cls-4,.cls-5{fill:none;stroke:#000;}.cls-1,.cls-2,.cls-3,.cls-4{stroke-miterlimit:10;}.cls-1,.cls-5{stroke-width:1.67px;}.cls-2{stroke-width:1.6px;}.cls-3{stroke-width:0.83px;}.cls-4{stroke-width:0.54px;}.cls-5{stroke-linecap:round;stroke-linejoin:round;}</style></defs><title>Asset 8</title><g id="Layer_2" data-name="Layer 2"><g id="Layer_1-2" data-name="Layer 1"><rect class="cls-1" x="10.44" y="15.8" width="72.07" height="72.07" rx="5.26"/><circle class="cls-2" cx="47.16" cy="58.92" r="20.57"/><rect class="cls-1" x="15.19" y="20.95" width="62.57" height="61.52"/><line class="cls-2" x1="15.33" y1="33" x2="77.76" y2="33"/><circle class="cls-2" cx="65.91" cy="26.8" r="1.37"/><circle class="cls-2" cx="60.06" cy="26.8" r="1.37"/><rect class="cls-3" x="70.63" y="23.66" width="4.25" height="5.85"/><line class="cls-3" x1="70.63" y1="25.11" x2="74.89" y2="25.11"/><line class="cls-3" x1="16.12" y1="36.68" x2="77.76" y2="36.68"/><line class="cls-3" x1="16.12" y1="45.03" x2="77.76" y2="45.03"/><line class="cls-3" x1="16.12" y1="53.37" x2="77.76" y2="53.37"/><line class="cls-3" x1="16.12" y1="61.72" x2="77.76" y2="61.72"/><line class="cls-3" x1="16.12" y1="70.9" x2="77.76" y2="70.9"/><line class="cls-3" x1="16.12" y1="78.42" x2="77.76" y2="78.42"/><circle class="cls-2" cx="48.14" cy="59.21" r="5.54"/><line class="cls-3" x1="21.06" y1="82.53" x2="21.56" y2="33"/><line class="cls-3" x1="29.41" y1="82.53" x2="29.91" y2="33.21"/><line class="cls-3" x1="37.76" y1="82.46" x2="38.26" y2="33.21"/><line class="cls-3" x1="46.11" y1="82.46" x2="46.6" y2="33.21"/><line class="cls-3" x1="55.29" y1="82.53" x2="55.29" y2="33.71"/><line class="cls-3" x1="62.8" y1="82.46" x2="62.8" y2="33"/><line class="cls-3" x1="71.29" y1="82.46" x2="71.29" y2="33"/><path class="cls-3" d="M17.13,16.3c.39,4.22-2.83,3.83-2.83,3.83.07,3.45-4.09,2.52-4.09,2.52"/><path class="cls-3" d="M75.35,16.3c-.4,4.22,2.83,3.83,2.83,3.83-.07,3.45,4.09,2.52,4.09,2.52"/><path class="cls-3" d="M17.13,87c.39-4.22-2.83-3.82-2.83-3.82.07-3.46-4.09-2.53-4.09-2.53"/><path class="cls-3" d="M75.35,87c-.4-4.22,2.83-3.82,2.83-3.82-.07-3.46,4.09-2.53,4.09-2.53"/><circle class="cls-2" cx="19.16" cy="26.8" r="1.37"/><path class="cls-4" d="M30.23,25.23a2,2,0,0,0-.89-.2,2.1,2.1,0,1,0,2.1,2.1,2.28,2.28,0,0,0-.12-.7"/><path class="cls-4" d="M30.61,25.13s.57-.51,1-.1-.18,1-.18,1L29,28.77a.43.43,0,0,1-.63,0l-.66-.68a.57.57,0,0,1,.07-.84Z"/><path class="cls-4" d="M36,25.36a2.26,2.26,0,0,0-.7.58,2.1,2.1,0,1,0,2.94-.36,2.21,2.21,0,0,0-.62-.34"/><path class="cls-4" d="M36.19,25s0-.76.55-.86.69.78.69.78l.62,3.62a.43.43,0,0,1-.38.5l-1,.1a.56.56,0,0,1-.61-.57Z"/><path class="cls-4" d="M43.74,28.83a2.07,2.07,0,0,0,.88.24,2.1,2.1,0,1,0-2-2.18,2,2,0,0,0,.09.7"/><path class="cls-4" d="M43.36,28.92s-.59.48-1,0,.23-1,.23-1l2.58-2.61a.43.43,0,0,1,.63,0l.63.72a.56.56,0,0,1-.1.83Z"/><path class="cls-4" d="M52.09,28.83a2,2,0,0,0,.88.24,2.1,2.1,0,1,0-2-2.18,1.83,1.83,0,0,0,.09.7"/><path class="cls-4" d="M51.71,28.92s-.6.48-1,0,.23-1,.23-1l2.58-2.61a.44.44,0,0,1,.63,0l.63.72a.56.56,0,0,1-.11.83Z"/><rect x="29.07" y="12.79" width="6.05" height="2.13"/><rect x="60.06" y="12.79" width="6.05" height="2.13"/><path class="cls-5" d="M35.12,13.5a34.49,34.49,0,0,1,25.58,0"/><path d="M23.47,27.81a.84.84,0,0,0,0-1.67.84.84,0,0,0,0,1.67Z"/><path d="M24.28,106.77c1.72,0,2.82-.37,3.31-1.1a.93.93,0,0,0,.18-.52c0-.44-.35-.67-1-.67H26c-.3,0-.51-.28-.62-.74a2.57,2.57,0,0,1-.08-.48q0-.18.09-.21H30c.11,0,.17.2.17.6v.15c0,.46-.06.68-.17.68H28.81c.19.15.27.45.26.92a2.34,2.34,0,0,1-.15.68,2.8,2.8,0,0,1-1.41,1.44,7,7,0,0,1-3.28.65c-3.16,0-4.73-1.48-4.73-4.47a6.49,6.49,0,0,1,.4-2.11h1.31a7.71,7.71,0,0,0-.34,2.09Q20.87,106.79,24.28,106.77Z"/><path d="M34.19,97.79a2.6,2.6,0,0,1,2.05.94,2.85,2.85,0,0,1,.71,2A2.94,2.94,0,0,1,35.69,103a.67.67,0,0,0,.23,0c.31,0,.89,0,1.72,0h.25c.11,0,.16.2.16.6v.15c0,.46,0,.68-.16.68h-.23a5.94,5.94,0,0,1-3.49-.77c-.7.52-2,.77-4,.77h-.32c-.41,0-.61-.22-.61-.68v-.15a.53.53,0,0,1,.61-.6h.32c1.27,0,2,0,2.3,0l.21,0a3,3,0,0,1-1.25-2.28,2.91,2.91,0,0,1,.66-1.94A2.58,2.58,0,0,1,34.19,97.79Zm-2.46-2.61,1.08-1.08,1.08,1.09-1.08,1.08Zm2.45,4.06a1.22,1.22,0,0,0-.8.32,1.38,1.38,0,0,0-.55,1.14,1.61,1.61,0,0,0,.49,1,1.44,1.44,0,0,0,.88.59q.34,0,.87-.57a1.73,1.73,0,0,0,.5-1.05,1.49,1.49,0,0,0-1.39-1.47Zm-.08-4.06,1.08-1.08,1.08,1.09-1.08,1.08Z"/><path d="M43.25,103.8c0,.46,0,.68-.15.68H43a2,2,0,0,1-1.9-1.1,3.07,3.07,0,0,1-2.7,1.1h-.66c-.4,0-.6-.22-.6-.68v-.15a.53.53,0,0,1,.6-.6h.62c1.28,0,2-.55,2-1.66l.08-1.4h1l.08,1.42c.07,1.09.54,1.64,1.43,1.64h.07c.1,0,.15.22.15.67ZM37.54,107l1.08-1.08L39.7,107l-1.08,1.08Zm2.38,0L41,105.88,42.07,107,41,108.05Z"/><path d="M52.61,104.48a1.87,1.87,0,0,1-1.91-1.1,2.87,2.87,0,0,1-4.52,0,2.64,2.64,0,0,1-2.52,1.1H43c-.41,0-.61-.22-.61-.68v-.15a.53.53,0,0,1,.61-.6h.68a1.67,1.67,0,0,0,1.85-1.8L45.6,100h1.06l.08,1.26c.07,1.19.65,1.79,1.75,1.79.92,0,1.41-.6,1.49-1.79l.08-1.26h1l.08,1.26c.07,1.19.53,1.78,1.37,1.79s1.12-.59,1.12-1.76V98.88h1.37v2.4C55.05,103.41,54.24,104.48,52.61,104.48Z"/><path d="M61.93,103.05h.6c.11,0,.16.22.16.67v.08c0,.46,0,.68-.16.68h-.65q-.57,3.64-5.39,3.69v-1.34c2.26,0,3.61-.79,4.07-2.35H60c-2.29,0-3.44-.9-3.44-2.68a3.24,3.24,0,0,1,.68-2.07,2.3,2.3,0,0,1,1.91-.86c1.51,0,2.42,1.08,2.71,3.23A7.94,7.94,0,0,1,61.93,103.05Zm-1.35,0c-.12-1.82-.63-2.73-1.52-2.73a1,1,0,0,0-.88.42,1.62,1.62,0,0,0-.3,1c0,.87.68,1.31,2.06,1.34Z"/><path d="M64.77,103.37a2.45,2.45,0,0,1-2.19,1.11h-.16c-.41,0-.61-.22-.61-.68v-.15a.53.53,0,0,1,.61-.6h.12a1.47,1.47,0,0,0,1.56-1.3,4.66,4.66,0,0,1,.76-1.82,2.43,2.43,0,0,1,2-1,2.64,2.64,0,0,1,2.15,1,3.34,3.34,0,0,1,.71,2.18,2.62,2.62,0,0,1-.56,1.78,2.3,2.3,0,0,1-1.85.71A3.39,3.39,0,0,1,64.77,103.37Zm2.48-.14a1.16,1.16,0,0,0,1.09-.55,1.19,1.19,0,0,0,.14-.53,1.91,1.91,0,0,0-.14-.74,1.81,1.81,0,0,0-.7-.88,1.35,1.35,0,0,0-.7-.18c-.85,0-1.35.57-1.49,1.7A2.21,2.21,0,0,0,67.25,103.23Z"/><path d="M31.77,0c1,.59,1.95,1.17,2.92,1.77a.78.78,0,1,1-.81,1.33l-.5-.3-.54-.33c.3,1.3.6,2.53.88,3.76a2.26,2.26,0,0,1-1.39,2.69,2.15,2.15,0,0,1-2.39-.5,2.15,2.15,0,0,1-.57-2.37,2.2,2.2,0,0,1,1.92-1.51l.41,0c-.19-.83-.38-1.64-.57-2.45-.06-.25-.13-.5-.19-.75-.17-.72-.09-.92.52-1.3Zm.46,6.79a.71.71,0,0,0-.72-.7.71.71,0,0,0,0,1.41A.72.72,0,0,0,32.23,6.79Z"/><path d="M89.77,24.8c.64.29.77.54.6,1.24-.26,1.07-.51,2.14-.78,3.24l.44.06a2.24,2.24,0,0,1,2,2.4,2.27,2.27,0,0,1-2.46,2.12,2.2,2.2,0,0,1-2-2.4,24.35,24.35,0,0,1,.56-2.67c.11-.49.23-1,.36-1.53l-1,.62a.79.79,0,1,1-.82-1.33l2.89-1.75Zm.71,6.81a.69.69,0,0,0-.68-.72.71.71,0,1,0,0,1.41A.7.7,0,0,0,90.48,31.61Z"/><path d="M87.75,8.35a1.05,1.05,0,0,1-.34,1.17c-.66.65-1.29,1.33-1.93,2a.81.81,0,0,1-1,.22.76.76,0,0,1-.19-1.21C85,9.74,85.74,9,86.47,8.24a.86.86,0,0,1,1-.15Z"/><path d="M80,4.4a.83.83,0,0,1,1.36.34,1.12,1.12,0,0,1,.05.31c0,1.35,0,2.69,0,4a.78.78,0,0,1-.6.83A.73.73,0,0,1,80,9.53a1,1,0,0,1-.11-.48c0-1.32-.06-2.64-.06-4A3.41,3.41,0,0,1,80,4.4Z"/><path d="M91.65,14.49a.83.83,0,0,1-.33,1.34,1.2,1.2,0,0,1-.38.05l-3.93,0c-.56,0-.91-.3-.91-.77s.33-.77.9-.78c1.32,0,2.64-.05,4-.05A2.91,2.91,0,0,1,91.65,14.49Z"/><path d="M83.23,13.83a.77.77,0,0,1-1.1,0,.81.81,0,0,1,0-1.11.79.79,0,0,1,1.08,0A.76.76,0,0,1,83.23,13.83Z"/><path d="M2.54,69.45c1,.59,2,1.17,2.92,1.77a.78.78,0,1,1-.81,1.32c-.17-.09-.33-.2-.5-.3l-.54-.32c.3,1.29.6,2.53.89,3.76a2.26,2.26,0,0,1-1.4,2.68,2.15,2.15,0,0,1-2.39-.49A2.16,2.16,0,0,1,.14,75.5,2.22,2.22,0,0,1,2.06,74l.41,0c-.19-.84-.38-1.65-.57-2.45l-.18-.75c-.18-.72-.09-.92.51-1.3ZM3,76.23a.7.7,0,0,0-.71-.69.69.69,0,0,0-.7.71.68.68,0,0,0,.71.69A.7.7,0,0,0,3,76.23Z"/><path d="M.58,51.92a1.06,1.06,0,0,0,1.07.58c.92,0,1.85,0,2.77,0A.81.81,0,0,0,5.29,52a.77.77,0,0,0-.74-1c-1,0-2.1,0-3.15,0a.87.87,0,0,0-.82.6Z"/><path d="M3.24,43.61a.82.82,0,0,0-.72,1.2,1.5,1.5,0,0,0,.19.25c1,1,1.89,1.92,2.84,2.87a.77.77,0,0,0,1,.15.73.73,0,0,0,.32-.87,1,1,0,0,0-.26-.41Q5.24,45.38,3.83,44A2.94,2.94,0,0,0,3.24,43.61Z"/><path d="M2.2,59a.83.83,0,0,0,1.19.7,1.33,1.33,0,0,0,.3-.23l2.8-2.77A.78.78,0,1,0,5.4,55.62c-1,.92-1.9,1.85-2.83,2.78A3.1,3.1,0,0,0,2.2,59Z"/><path d="M7.66,52.55a.78.78,0,0,0,.8-.76A.8.8,0,0,0,7.68,51a.78.78,0,0,0-.77.75A.75.75,0,0,0,7.66,52.55Z"/></g></g></svg>