<svg xmlns="http://www.w3.org/2000/svg" viewBox="0 0 81.07 105.77"><defs><style>.cls-1{font-size:16.35px;stroke:#000;stroke-miterlimit:10;stroke-width:0.18px;font-family:Dirooz-FD, Dirooz FD;}</style></defs><title>Asset 12</title><g id="Layer_2" data-name="Layer 2"><g id="Layer_1-2" data-name="Layer 1"><path d="M.63,68.89c.62-2.25,1.2-4.5,1.86-6.73a15.07,15.07,0,0,0,.6-4.63c-.06-2.42,0-4.85,0-7.28v-.82H7.39v3.93c1.45,0,2.83,0,4.2,0a1.48,1.48,0,0,1,1.41.7q1.89,2.63,3.89,5.19a1.43,1.43,0,0,0,.91.5c5.54.35,9.81-3.73,9.88-9.42,0-1.29,0-2.57,0-3.86,0-.23,0-.46,0-.77h2.59c1.53,0,3.05,0,4.57,0a1.48,1.48,0,0,1,.95.44c2.43,2.87,4.81,5.77,7.23,8.64A7.1,7.1,0,0,0,44.36,56q7.53,5.52,15.11,11a3,3,0,0,0,1.08.5c4.43,1.05,8.88,2.08,13.32,3.11l.51.15V81.9l-6.06,1.25a119.47,119.47,0,0,1-24.46,2.23c-9.72,0-19.45,0-29.18,0a47.76,47.76,0,0,1-14-2.08ZM4.86,72.2H22.62a1.08,1.08,0,0,1,1,.54c1.77,2.59,3.58,5.15,5.36,7.74a1.15,1.15,0,0,0,1.09.58c4.4,0,8.8,0,13.2,0A113.14,113.14,0,0,0,61,80c2.89-.43,5.75-1,8.62-1.54.21,0,.51-.31.52-.48,0-1.25,0-2.51,0-3.76-.21-.07-.36-.14-.52-.18-3.49-.81-7-1.6-10.47-2.45a5.32,5.32,0,0,1-1.78-.81c-2.29-1.61-4.54-3.28-6.86-5l-3,3.42-3.27-2.81L47,63.26,43.3,60.6l-2.6,3L37.43,60.8l2.51-2.94c-.15-.2-.27-.37-.4-.53-1.83-2.2-3.69-4.36-5.46-6.59a1.8,1.8,0,0,0-2-.64c0,.24,0,.46,0,.67a13.14,13.14,0,0,1-3.18,8.5,13.29,13.29,0,0,1-13.56,4.45,1.59,1.59,0,0,1-.84-.56c-1.26-1.64-2.48-3.31-3.74-4.95a1.13,1.13,0,0,0-.64-.48c-.84,0-1.7,0-2.64,0,0,.59,0,1.11,0,1.62a11.65,11.65,0,0,1-.23,2c-.66,2.58-1.41,5.13-2,7.72A21,21,0,0,0,4.86,72.2ZM5,80c6.29,1.62,12.68.89,19.19,1.09-1-1.42-1.88-2.67-2.73-4a1.17,1.17,0,0,0-1.1-.58c-4.86,0-9.71,0-14.56,0H5Z"/><path d="M60.05,5A39.1,39.1,0,0,0,43.67.14,5.47,5.47,0,0,1,43,0H38.13c-1.52.21-3.06.35-4.56.63A40,40,0,0,0,5.71,19.85,38.62,38.62,0,0,0,.13,37.52a3.51,3.51,0,0,1-.13.61V43c.21,1.52.33,3.06.63,4.57A47.26,47.26,0,0,0,4.42,58.94,3.6,3.6,0,0,1,6,55.88,36.58,36.58,0,0,1,3,44.62a1.47,1.47,0,0,1,.3-1c2.53-3.09,5.1-6.15,7.65-9.23a.65.65,0,0,1,.86-.23c4.52,1.52,9,3,13.57,4.55a1.2,1.2,0,0,1,.67.71c1,3.94,2,7.89,3,11.84a3.73,3.73,0,0,1,2.41-1.55c-.89-3.6-1.79-7.2-2.67-10.81a1,1,0,0,1,.22-.84C32.75,35,36.56,32,40.38,28.92c0,0,.09,0,.23-.11l9.61,7.69c.63.51,1.25,1,1.9,1.51a.71.71,0,0,1,.3.92q-1.66,6.6-3.3,13.21c-.1.42-.26.59-.72.59H38.2A20.64,20.64,0,0,1,41,55.43h7.85a1.1,1.1,0,0,1,.76.4q3.34,4.35,6.62,8.75a1,1,0,0,1,.06.87L55,67.77a4.59,4.59,0,0,1,2.35,1.37c.45-.79.9-1.57,1.34-2.36A1.41,1.41,0,0,1,59.8,66c3.13-.46,6.24-1,9.36-1.47a5.73,5.73,0,0,1,.69,0,38.38,38.38,0,0,1-6.34,6.1,3.83,3.83,0,0,1,2,1.9,43.26,43.26,0,0,0,4.8-4.42A38.88,38.88,0,0,0,80.8,45.33,40.37,40.37,0,0,0,60.05,5Zm-51,27.36c-2,2.5-4.13,5-6.22,7.49-.75-2.95,1.78-13,4.31-17,.7,3,1.39,5.88,2.05,8.78A.92.92,0,0,1,9.09,32.38ZM39.21,19.11c0,2.22,0,4.44,0,6.66a1.44,1.44,0,0,1-.46,1Q33,31.38,27.22,35.94a1.33,1.33,0,0,1-1,.18c-4.56-1.49-9.11-3-13.67-4.52a1,1,0,0,1-.72-.8c-.83-3.58-1.69-7.16-2.5-10.75A1.52,1.52,0,0,1,9.51,19a37.44,37.44,0,0,1,15-12.65,1.41,1.41,0,0,1,1,0C29.85,8,34.21,9.76,38.59,11.47a.88.88,0,0,1,.64,1C39.19,14.67,39.21,16.89,39.21,19.11Zm.89-9.95C36.45,7.75,32.82,6.3,29.18,4.85a3.23,3.23,0,0,1-.44-.23,37.79,37.79,0,0,1,23.58,0L51.6,5c-3.49,1.39-7,2.79-10.47,4.16A1.59,1.59,0,0,1,40.1,9.16Zm2.33,17.66a1.26,1.26,0,0,1-.54-1.11q0-6.63,0-13.26a.91.91,0,0,1,.7-1C46.89,9.75,51.17,8,55.47,6.32a1.71,1.71,0,0,1,1.22,0A37.5,37.5,0,0,1,71.56,18.9c.16.23.28.47.38.64l-1,4.54c-.52,2.21-1.06,4.42-1.55,6.63a1.13,1.13,0,0,1-.87.94Q61.74,33.85,55,36.12a1.11,1.11,0,0,1-1.2-.19Q48.15,31.36,42.43,26.82ZM75.32,55.44c-.83,1.83-1.84,3.57-2.82,5.32a1.4,1.4,0,0,1-.89.6q-6.14,1-12.3,2a1,1,0,0,1-.82-.34q-3.37-4.38-6.68-8.81a1.15,1.15,0,0,1-.19-.84q1.71-7,3.48-14a1,1,0,0,1,.6-.6c4.55-1.54,9.1-3,13.65-4.58a.68.68,0,0,1,.86.26q3.83,4.62,7.67,9.23a2.72,2.72,0,0,1,.32.58A35.35,35.35,0,0,1,75.32,55.44ZM73.29,34a3.79,3.79,0,0,1-1-4.24c.7-2.2,1.1-4.5,1.67-7A37.55,37.55,0,0,1,78.39,40C76.6,37.89,75.05,35.84,73.29,34Z"/><text class="cls-1" transform="translate(18.63 98.67)">یشزرو</text></g></g></svg>