<svg xmlns="http://www.w3.org/2000/svg" viewBox="0 0 77.96 105.51"><defs><style>.cls-1{opacity:0.36;}.cls-2{fill:#fff;}.cls-3,.cls-4{fill:none;stroke:#000;stroke-linecap:round;}.cls-3{stroke-miterlimit:10;stroke-width:2px;}.cls-4{stroke-linejoin:round;stroke-width:1.75px;}</style></defs><title>Asset 11</title><g id="Layer_2" data-name="Layer 2"><g id="Layer_1-2" data-name="Layer 1"><g class="cls-1"><path class="cls-2" d="M77.07,4.34A5.2,5.2,0,0,0,74.36,8V3.64"/></g></g><g id="Layer_6" data-name="Layer 6"><line class="cls-3" x1="62.36" y1="14.64" x2="37.69" y2="40.87"/><line class="cls-3" x1="69.36" y1="16.87" x2="66.65" y2="67.74"/><line class="cls-3" x1="14.56" y1="12.12" x2="40.46" y2="37.93"/><line class="cls-3" x1="10.3" y1="16.87" x2="12.49" y2="67.74"/><path class="cls-3" d="M19.33,62.22c-4.26,1.54-6.84,3.58-6.84,5.81,0,4.83,12.12,8.74,27.08,8.74S66.65,72.85,66.65,68c0-2-2.11-3.87-5.64-5.34"/><path class="cls-3" d="M30.81,43.79V57.45s-.58,9,11.39,14.27c0,0,10.7-3.29,11.54-14.14s.74-13.79.74-13.79l-5,.74a42.78,42.78,0,0,1-14.5,0Z"/><line class="cls-3" x1="35.23" y1="51.94" x2="39.49" y2="51.94"/><line class="cls-3" x1="45.23" y1="51.94" x2="49.49" y2="51.94"/><path class="cls-3" d="M35.63,59.59l.2.13a11.26,11.26,0,0,0,12.19,0l.2-.13"/><path class="cls-3" d="M30.78,45.82a34.63,34.63,0,0,1-6.34-.52L21,44.71V56s-.46,7.14,8.85,11.52l.54.25a8.82,8.82,0,0,0,3.21-1.22"/><line class="cls-3" x1="25.05" y1="51.94" x2="28.56" y2="51.94"/><path class="cls-3" d="M26.8,59.46l.15-.09a8.26,8.26,0,0,1,3.83-1.3"/><path class="cls-4" d="M6.32,14.61,14.14,8.4,10.76,4.14S7-1.39,2.72,2s.22,8.34.22,8.34Z"/><path class="cls-4" d="M72,14.59,64,8.74l3.19-4.4s3.53-5.69,7.94-2.49.14,8.33.14,8.33Z"/><path d="M29.37,100.76c-.34,2.67-2.19,4-5.53,4.08V103.5q4.23-.06,4.23-3.69a6.6,6.6,0,0,0-.73-2.66h1.55l.39,1.39c.22.78.61,1.16,1.18,1.16h.22c.11,0,.16.19.16.57v.18c0,.46-.05.69-.16.69h-.13A1.41,1.41,0,0,1,29.37,100.76Z"/><path d="M31.22,101.15h-.67c-.41,0-.61-.23-.61-.69v-.14a.54.54,0,0,1,.61-.61h.67c1.41,0,2.12-.66,2.12-2V95.53h1.3v2.2Q34.64,101.15,31.22,101.15Zm-.69-8.32,1.08-1.08,1.08,1.09-1.08,1.08Zm2.37,0L34,91.75l1.08,1.09L34,93.92Z"/><path d="M40.28,100.46c0,.46-.05.69-.16.69H40q-2.93,0-2.93-3.42V90.07h1.33v7.64c0,1.34.54,2,1.62,2h.14c.11,0,.16.2.16.61Z"/><path d="M45.49,100.46c0,.46-.05.69-.16.69h-.08a2,2,0,0,1-1.9-1.1,3.07,3.07,0,0,1-2.7,1.1H40c-.41,0-.61-.23-.61-.69v-.14a.54.54,0,0,1,.61-.61h.61c1.29,0,2-.55,2-1.65l.07-1.4h1l.08,1.41c.06,1.1.54,1.64,1.43,1.64h.06c.11,0,.16.23.16.68Zm-3.87-6.15a1.72,1.72,0,0,1-.73-1.42,1.63,1.63,0,0,1,.46-1.17,1.82,1.82,0,0,1,1.38-.57,2.62,2.62,0,0,1,1.34.34v1a3.2,3.2,0,0,0-1.23-.32,1,1,0,0,0-.76.27.77.77,0,0,0-.22.54c0,.39.31.68.9.89a.58.58,0,0,0,.19,0c.25,0,.7-.11,1.33-.22v1.06l-3.42.77v-1Z"/><path d="M45.73,105.51v-.81l3.55-1.45v.8Z"/><path d="M45.89,101.15h-.68c-.4,0-.61-.23-.61-.69v-.14a.54.54,0,0,1,.61-.61h.68c1.41,0,2.11-.66,2.11-2V95.53h1.31v2.2Q49.31,101.15,45.89,101.15Zm-.7-8.32,1.08-1.08,1.08,1.09-1.08,1.08Zm2.38,0,1.08-1.08,1.07,1.09-1.07,1.08Z"/></g></g></svg>