<svg xmlns="http://www.w3.org/2000/svg" viewBox="0 0 104.73 81.57"><defs><style>.cls-1,.cls-10,.cls-11,.cls-12,.cls-13,.cls-2,.cls-3,.cls-4,.cls-5,.cls-6,.cls-7,.cls-8,.cls-9{fill:none;stroke:#000;}.cls-1,.cls-10,.cls-11,.cls-12,.cls-13,.cls-2,.cls-3,.cls-4,.cls-5,.cls-6,.cls-7{stroke-linecap:round;}.cls-1,.cls-10,.cls-11,.cls-12,.cls-2,.cls-4,.cls-5,.cls-6,.cls-7,.cls-8,.cls-9{stroke-miterlimit:10;}.cls-1,.cls-3{stroke-width:1.81px;}.cls-2{stroke-width:2.21px;}.cls-13,.cls-3{stroke-linejoin:round;}.cls-4{stroke-width:2.43px;}.cls-5{stroke-width:1.7px;}.cls-6{stroke-width:1.89px;}.cls-7{stroke-width:2.63px;}.cls-8{stroke-width:1.79px;}.cls-9{stroke-width:2.2px;}.cls-10{stroke-width:2px;}.cls-11{stroke-width:1.72px;}.cls-12{stroke-width:1.7px;}.cls-13{stroke-width:0.6px;}</style></defs><title>Asset 2</title><g id="Layer_2" data-name="Layer 2"><g id="Layer_1-2" data-name="Layer 1"><path class="cls-1" d="M4.23,48.62S2.44,29.77,7.8,29.06L13.56,17s-.77-5.57,6.13-5.64c6.73-.07,54.46-.71,66-.86a8.63,8.63,0,0,1,6.68,2.95A6.28,6.28,0,0,1,94,17.57c0,6.13-.22,12.27-.22,12.27l10,8.81"/><line class="cls-2" x1="9.84" y1="17.03" x2="96.43" y2="15.49"/><path class="cls-3" d="M17.52,17.43l-3.41,7.73a2.16,2.16,0,0,0,2,3H30.43"/><line class="cls-1" x1="30.94" y1="17.02" x2="30.94" y2="42.04"/><path class="cls-1" d="M.9,42.06v3.29a.55.55,0,0,0,.93.39h0a2.83,2.83,0,0,0,0-4.08h0A.55.55,0,0,0,.9,42.06Z"/><rect class="cls-4" x="1.6" y="49.2" width="16.61" height="5.11" rx="2.56"/><circle class="cls-5" cx="30.99" cy="51.51" r="5.61"/><path class="cls-3" d="M18.41,51.64H22a8.9,8.9,0,0,1,17.8,0H64.55"/><line class="cls-6" x1="27.55" y1="31.69" x2="27.55" y2="34.56"/><ellipse class="cls-7" cx="31.07" cy="51.62" rx="2.36" ry="2.29" transform="translate(-23.5 77.17) rotate(-84.04)"/><rect class="cls-8" x="35.03" y="16.23" width="19.56" height="12.12" rx="6.06"/><rect class="cls-9" x="57.9" y="16.02" width="28.99" height="12.32" rx="6.16"/><path class="cls-5" d="M31,45.9a5.61,5.61,0,1,1,0,11.22"/><ellipse class="cls-10" cx="31.07" cy="51.62" rx="2.36" ry="2.29" transform="translate(-23.5 77.17) rotate(-84.04)"/><path class="cls-3" d="M64.55,50.94a8.9,8.9,0,1,1,17.8,0"/><rect class="cls-11" x="87.45" y="48.96" width="8.31" height="5.11" rx="2.56"/><line class="cls-1" x1="87.02" y1="51.76" x2="82.32" y2="51.76"/><line class="cls-12" x1="72.11" y1="31.69" x2="93.21" y2="31.69"/><line class="cls-1" x1="93.35" y1="48.96" x2="93.35" y2="32.71"/><rect class="cls-3" x="57.9" y="0.9" width="23.49" height="9.59" rx="4.79"/><rect class="cls-3" x="33.93" y="0.91" width="23.49" height="9.59" rx="4.79"/><rect class="cls-13" x="39.08" y="1.31" width="1.73" height="8.8" rx="0.86"/><rect class="cls-13" x="50.92" y="1.31" width="1.73" height="8.8" rx="0.86"/><rect class="cls-13" x="63.64" y="1.3" width="1.73" height="8.8" rx="0.86"/><rect class="cls-13" x="75.47" y="1.3" width="1.73" height="8.8" rx="0.86"/><line class="cls-3" x1="43.75" y1="5.7" x2="47.14" y2="5.7"/><line class="cls-3" x1="68.73" y1="5.7" x2="72.11" y2="5.7"/><circle class="cls-5" cx="73.61" cy="50.66" r="5.61"/><ellipse class="cls-7" cx="73.69" cy="50.77" rx="2.36" ry="2.29" transform="translate(15.54 118.79) rotate(-84.04)"/><path class="cls-5" d="M73.61,45.05a5.61,5.61,0,0,1,0,11.22"/><ellipse class="cls-10" cx="73.69" cy="50.77" rx="2.36" ry="2.29" transform="translate(15.54 118.79) rotate(-84.04)"/><path d="M12.16,79.62c1.79,0,2.89-.52,3.32-1.57.25-.6.06-.91-.58-.93h-.47c-1.25,0-1.88-.6-1.89-1.72A3.2,3.2,0,0,1,14,72.5a5.24,5.24,0,0,1,2.81-.76v1.51a4.14,4.14,0,0,0-1.66.3,1.86,1.86,0,0,0-1.25,1.74c0,.25.17.37.48.37h.32c1.49,0,2.23.55,2.24,1.64a3.15,3.15,0,0,1-.12.92Q16.07,81,12.11,81C9,81,7.38,79.54,7.38,76.55a9,9,0,0,1,.48-3H9.17a10.66,10.66,0,0,0-.42,2.94Q8.75,79.63,12.16,79.62Z"/><path d="M23.08,77.49c-.35,2.67-2.19,4-5.54,4.08V80.23q4.25-.06,4.23-3.69A6.44,6.44,0,0,0,21,73.88h1.55L23,75.28c.22.78.62,1.17,1.19,1.17h.22c.1,0,.15.18.15.56v.19c0,.45-.05.68-.15.68h-.13A1.4,1.4,0,0,1,23.08,77.49Z"/><path d="M29.64,76.48c-.67.94-2,1.4-3.95,1.4H24.26c-.41,0-.61-.23-.61-.68v-.15a.53.53,0,0,1,.61-.6h1.42c2.1,0,3.15-.61,3.15-1.81a1.84,1.84,0,0,0-.63-1.3c-.25-.26-1-.89-2.33-1.9A1.85,1.85,0,0,1,25,70a1.39,1.39,0,0,1,.29-.88,1.79,1.79,0,0,1,.8-.58l5.57-2.21v1.52L26.26,70l2.67,2.18a3.26,3.26,0,0,1,1.3,2.5c0,1.18.72,1.77,2,1.77h.13q.15,0,.15.6v.15c0,.45,0,.68-.15.68h-.13A2.61,2.61,0,0,1,29.64,76.48Zm2-11.28-6.27,2.57v-1l6.27-2.56Z"/><path d="M41.9,77.87A1.84,1.84,0,0,1,40,76.78a2.57,2.57,0,0,1-2.23,1.1,2.54,2.54,0,0,1-2.3-1.1A2.62,2.62,0,0,1,33,77.88h-.67c-.41,0-.61-.23-.61-.68v-.15a.53.53,0,0,1,.61-.6H33a1.67,1.67,0,0,0,1.85-1.8l.08-1.25H36L36,74.66c.07,1.19.66,1.79,1.76,1.79.91,0,1.41-.6,1.48-1.79l.08-1.26h1l.08,1.26c.07,1.18.53,1.78,1.38,1.79S43,75.86,43,74.69V72.28h1.37v2.4C44.34,76.81,43.53,77.87,41.9,77.87Zm-4.51-7.34,1.06-1,1,1.06-1,1Zm1.19-1.93,1.05-1,1.06,1.06-1.06,1Zm1.19,1.93,1-1,1,1.06-1,1Z"/><path d="M46.05,76.22a9.32,9.32,0,0,0,1.89.19c1.82,0,2.73-.46,2.73-1.39s-1-2.09-2.88-3.29l.57-1.37c2.51,1.51,3.77,3.06,3.76,4.64,0,1.91-1.36,2.86-4.08,2.87a9.53,9.53,0,0,1-2-.19Z"/><path d="M57,77.49q-.53,4-5.53,4.08V80.23q4.23-.06,4.22-3.69a6.57,6.57,0,0,0-.72-2.66h1.54l.39,1.39c.22.78.62,1.17,1.19,1.17h.22c.1,0,.16.18.16.56v.19c0,.45-.06.68-.16.68h-.13A1.4,1.4,0,0,1,57,77.49Z"/><path d="M59.58,77.88H58.15c-.41,0-.61-.23-.61-.68v-.15a.53.53,0,0,1,.61-.6h1.42c2.1,0,3.15-.61,3.15-1.81a1.84,1.84,0,0,0-.63-1.3c-.25-.26-1-.89-2.33-1.9a1.85,1.85,0,0,1-.87-1.4,1.39,1.39,0,0,1,.29-.88,1.85,1.85,0,0,1,.8-.58l5.57-2.21v1.52L60.15,70l2.67,2.18a3.1,3.1,0,0,1,1.3,2.5C64.1,76.82,62.59,77.88,59.58,77.88ZM65.5,65.2l-6.27,2.57v-1L65.5,64.2Z"/><path d="M75.65,73.89a7.47,7.47,0,0,1,.55,2.63q0,5-5.59,5V80.23q4.23-.06,4.22-3.69a6.57,6.57,0,0,0-.72-2.66Z"/><path d="M82.92,76.45h.6c.11,0,.16.22.16.67v.08c0,.45-.05.68-.16.68h-.65q-.57,3.65-5.4,3.69V80.23q3.39,0,4.07-2.35H81q-3.44,0-3.44-2.67a3.29,3.29,0,0,1,.68-2.08,2.31,2.31,0,0,1,1.91-.85c1.51,0,2.42,1.07,2.71,3.23A7.82,7.82,0,0,1,82.92,76.45Zm-1.35,0c-.12-1.83-.63-2.74-1.52-2.74a1,1,0,0,0-.88.42,1.66,1.66,0,0,0-.3,1c0,.87.68,1.32,2.06,1.35Z"/><path d="M84.08,77.88H83.4c-.4,0-.61-.23-.61-.68v-.15a.54.54,0,0,1,.61-.6h.68c1.41,0,2.11-.67,2.11-2V72.26H87.5v2.2Q87.5,77.88,84.08,77.88Zm-.7-8.32,1.08-1.08,1.08,1.09-1.08,1.08Zm2.38,0,1.08-1.08,1.07,1.09-1.07,1.08Z"/></g></g></svg>