<svg xmlns="http://www.w3.org/2000/svg" viewBox="0 0 77.23 92.42"><title>Asset 7</title><g id="Layer_2" data-name="Layer 2"><g id="Layer_1-2" data-name="Layer 1"><path d="M39.25,19A19,19,0,1,1,58.16,38,19,19,0,0,1,39.25,19Zm13.5,2.15a17.31,17.31,0,0,0,4.81-2.59.48.48,0,0,0,.14-.35,18.84,18.84,0,0,1,4.46-14c.57-.67,1.2-1.29,1.82-1.95a16.9,16.9,0,0,0-4.08-.88,1,1,0,0,0-.79.22,17.59,17.59,0,0,0-7.18,14.1A16.49,16.49,0,0,0,52.75,21.13ZM69.81,32.38a.46.46,0,0,0,.1-.05,17.26,17.26,0,0,0,3.15-3.62.48.48,0,0,0,0-.33,25.92,25.92,0,0,0-.74-2.75,17.45,17.45,0,0,0-11.89-11c-.47-.14-.95-.22-1.45-.34a19.23,19.23,0,0,0,0,4.55,1.06,1.06,0,0,0,.69.94A18.57,18.57,0,0,1,69,30C69.32,30.79,69.55,31.59,69.81,32.38ZM57.43,1.29a17.53,17.53,0,0,0-4.82.91,3.63,3.63,0,0,0-1.26.58,17.64,17.64,0,0,0-4.7,19.09.37.37,0,0,0,.43.28c.61,0,1.23,0,1.83-.13.87-.12,1.73-.3,2.64-.46A19,19,0,0,1,57.43,1.29Zm4.12,21a19.72,19.72,0,0,0-3.36-1.91,1.17,1.17,0,0,0-1.28.11A18.48,18.48,0,0,1,43,23c-.7-.14-1.38-.33-2.08-.5a16.61,16.61,0,0,0,1.82,5,.53.53,0,0,0,.31.21c1.1.23,2.21.53,3.33.65A17.56,17.56,0,0,0,61.55,22.3ZM74.1,26.85c.07-.12.11-.17.13-.22.4-1.1.81-2.2,1.19-3.31a2,2,0,0,0,.15-1,16.18,16.18,0,0,0-1.89-5.07A17.47,17.47,0,0,0,63.62,9.07c-.91-.29-1.86-.46-2.79-.68A17.51,17.51,0,0,0,59.24,13,19.1,19.1,0,0,1,74.1,26.85ZM43.84,29.3a17.22,17.22,0,0,0,3.4,3.57.55.55,0,0,0,.28.12c1,.17,2,.41,3,.49a17.46,17.46,0,0,0,12.43-3.77,16.6,16.6,0,0,0,3-3,17,17,0,0,0-3.31-3.61A19.18,19.18,0,0,1,43.84,29.3ZM75.94,19a.7.7,0,0,0,0-.14,17.29,17.29,0,0,0-.77-5A17.59,17.59,0,0,0,65.64,2.89.4.4,0,0,0,65.1,3c-.65.66-1.35,1.27-1.95,2S62,6.43,61.43,7.21A19.12,19.12,0,0,1,75.94,19ZM50.22,34.77l.21.13a17.28,17.28,0,0,0,6.75,1.79,17.67,17.67,0,0,0,11-3,.72.72,0,0,0,.36-.94,17.92,17.92,0,0,0-1.92-4.85A19.23,19.23,0,0,1,50.22,34.77ZM45.36,22.12A19.36,19.36,0,0,1,47.92,4.6,18.5,18.5,0,0,0,46.17,6a17.52,17.52,0,0,0-5.6,14.37.9.9,0,0,0,.72.88,16.18,16.18,0,0,0,1.65.46C43.73,21.87,44.52,22,45.36,22.12Z"/><path d="M48.63,54.72c-3.75-.54-7.49-1.15-11.23-1.76s-7.48-1.2-11.2-1.86L15,49.14l-11.17-2L0,46.41l3.54-1.73,11-5.4L25.63,34q5.52-2.67,11.09-5.27l2.77-1.31.7-.33.34-.16,0,0a1.49,1.49,0,0,1,.42-.13,1.6,1.6,0,0,1,1.7.82l.09.21v0l0,.05a10.7,10.7,0,0,0,.54,1.25,12.21,12.21,0,0,0,3.49,4.23l1.81,1.43-2.1,1-9.94,4.58-10,4.52-.29-2.12L35,44.39l8.67,1.75L52.36,48c2.89.59,5.76,1.23,8.64,1.88-2.93-.36-5.85-.73-8.77-1.14l-8.76-1.2-8.75-1.27L26,44.9l-3.51-.53,3.22-1.59,9.81-4.84,9.83-4.8-.28,2.39a14.8,14.8,0,0,1-4.3-5.13,14.27,14.27,0,0,1-.68-1.55l0-.05v0s.05.12.08.17a1.28,1.28,0,0,0,.58.55,1.26,1.26,0,0,0,.79.11,1.18,1.18,0,0,0,.33-.1l0,0-.35.17-.69.33L38,31.36Q32.46,34,26.9,36.63L15.79,41.86,4.64,47l-.3-2.43L15.44,47l11.08,2.48c3.7.82,7.38,1.72,11.06,2.58S45,53.79,48.63,54.72Z"/><path d="M34.41,92.42q-4.57,0-4.57-4.48a8.13,8.13,0,0,1,.48-2.65h1.31a9.72,9.72,0,0,0-.42,2.64q0,3.09,3.21,3.09c1.91,0,2.86-1,2.87-3.07l0-10.3h1.33v8.74c0,.73,0,1.44-.07,2.12Q38.26,92.43,34.41,92.42Z"/><path d="M44.36,88c0,.46,0,.69-.16.69H44q-2.92,0-2.92-3.42V77.65h1.32v7.64c0,1.34.54,2,1.62,2h.14c.11,0,.16.2.16.6Z"/><path d="M49.57,88c0,.46,0,.69-.16.69h-.08a2,2,0,0,1-1.89-1.1,3.1,3.1,0,0,1-2.71,1.1h-.65q-.6,0-.6-.69v-.15a.53.53,0,0,1,.6-.6h.61c1.29,0,2-.55,2-1.65l.08-1.4h1l.08,1.41c.06,1.1.54,1.64,1.43,1.64h.06c.11,0,.16.23.16.67Zm-4.11,3.17,1.08-1.08,1.08,1.08-1.08,1.08Z"/><path d="M54.78,88c0,.46-.05.69-.16.69h-.07a2,2,0,0,1-1.9-1.1,3.1,3.1,0,0,1-2.71,1.1h-.65q-.6,0-.6-.69v-.15a.53.53,0,0,1,.6-.6h.62c1.28,0,2-.55,2-1.65l.08-1.4h1l.08,1.41c.06,1.1.54,1.64,1.43,1.64h.06c.11,0,.16.23.16.67Zm-5.71,3.17,1.08-1.08,1.08,1.08-1.08,1.08Zm2.38,0,1.07-1.08,1.08,1.08-1.08,1.08Z"/><path d="M54.51,88.73q-.6,0-.6-.69v-.15a.53.53,0,0,1,.6-.6h.54a1.75,1.75,0,0,0,2-2V77.65h1.32v7.7c0,2.25-1.1,3.38-3.32,3.38Z"/><path d="M60.81,77.65h1.32V88.72H60.81Z"/><path d="M69.3,86.36a8.61,8.61,0,0,1,.1,1.38q0,4.62-5.47,4.68V91.07q3.39,0,4.07-2.34h-.55Q64,88.72,64,86A3.28,3.28,0,0,1,64.69,84a2.33,2.33,0,0,1,1.91-.86C68.08,83.11,69,84.19,69.3,86.36ZM68,87.28c-.12-1.82-.62-2.73-1.51-2.73a1.06,1.06,0,0,0-.89.42,1.64,1.64,0,0,0-.3,1c0,.87.69,1.32,2.06,1.34Z"/></g></g></svg>